<svg width="25" height="24" viewBox="0 0 25 24" fill="none" xmlns="http://www.w3.org/2000/svg">
<g clip-path="url(#clip0_1037_14648)">
<path d="M5.96624 0H19.4542C22.3571 0 24.7102 2.35312 24.7102 5.256V18.744C24.7102 21.6469 22.3571 24 19.4542 24H5.96624C3.06336 24 0.710236 21.6469 0.710236 18.744V5.256C0.710236 2.35312 3.06336 0 5.96624 0Z" fill="url(#paint0_linear_1037_14648)"/>
<path d="M8.40169 17.4197L8.40394 17.4205L7.58334 18.8417C7.28381 19.3606 6.62044 19.5383 6.10162 19.2388C5.58281 18.9392 5.40506 18.2759 5.70459 17.7571L6.30909 16.7101L6.36712 16.6096C6.47072 16.4607 6.72637 16.2036 7.23778 16.252C7.23778 16.252 8.44125 16.3826 8.52834 17.0081C8.52834 17.0081 8.54015 17.2139 8.40169 17.4197ZM20.0401 13.7897H17.4813C17.307 13.778 17.231 13.7158 17.201 13.6796L17.1991 13.6763L14.46 8.93199L14.4564 8.93433L14.2922 8.69883C14.0229 8.28708 13.5954 9.34008 13.5954 9.34008C13.085 10.5135 13.6679 11.8474 13.8711 12.2506L17.6756 18.8403C17.9751 19.3591 18.6384 19.5369 19.1573 19.2373C19.6761 18.9377 19.8539 18.2744 19.5543 17.7556L18.603 16.1078C18.5845 16.0679 18.5525 15.9595 18.7476 15.959H20.0401C20.6392 15.959 21.1248 15.4734 21.1248 14.8743C21.1248 14.2753 20.6392 13.7897 20.0401 13.7897ZM15.07 15.2641C15.07 15.2641 15.2066 15.9589 14.6782 15.9589H5.21887C4.61981 15.9589 4.13419 15.4733 4.13419 14.8742C4.13419 14.2752 4.61981 13.7896 5.21887 13.7896H7.65075C8.04337 13.7669 8.13637 13.5402 8.13637 13.5402L8.13862 13.5413L11.313 8.04305L11.3121 8.04287C11.3699 7.93665 11.3217 7.83624 11.3134 7.8204L10.265 6.00455C9.96544 5.48583 10.1432 4.82237 10.662 4.52293C11.1808 4.22349 11.8442 4.40105 12.1437 4.91987L12.6299 5.76202L13.1152 4.92137C13.4148 4.40265 14.0782 4.2248 14.597 4.52443C15.1158 4.82405 15.2935 5.48724 14.994 6.00605L10.5767 13.657C10.5574 13.7036 10.5515 13.7767 10.6952 13.7896H13.3356L13.3361 13.8153C13.3361 13.8153 14.8622 13.8391 15.07 15.2641Z" fill="white"/>
</g>
<defs>
<linearGradient id="paint0_linear_1037_14648" x1="1200.71" y1="0" x2="1200.71" y2="2400" gradientUnits="userSpaceOnUse">
<stop stop-color="#17C9FB"/>
<stop offset="1" stop-color="#1A74E8"/>
</linearGradient>
<clipPath id="clip0_1037_14648">
<rect width="24" height="24" fill="white" transform="translate(0.710236)"/>
</clipPath>
</defs>
</svg>
