<svg width="200" height="200" viewBox="0 0 200 200" fill="none" xmlns="http://www.w3.org/2000/svg">
<path d="M200 100C200 155.228 155.228 200 100 200C44.7715 200 0 155.228 0 100C0 44.7715 44.7715 0 100 0C155.228 0 200 44.7715 200 100ZM9.08917 100C9.08917 150.209 49.7913 190.911 100 190.911C150.209 190.911 190.911 150.209 190.911 100C190.911 49.7913 150.209 9.08917 100 9.08917C49.7913 9.08917 9.08917 49.7913 9.08917 100Z" fill="#F7F8F3"/>
<path d="M93.8327 0.19036C114.91 -1.11205 135.859 4.29175 153.677 15.6273L148.798 23.296C132.6 12.9908 113.555 8.0782 94.3932 9.26223L93.8327 0.19036Z" fill="#37913B"/>
<path d="M93.8327 0.19036C114.91 -1.11205 135.859 4.29175 153.677 15.6273L148.798 23.296C132.6 12.9908 113.555 8.0782 94.3932 9.26223L93.8327 0.19036Z" fill="#37913B"/>
<path d="M93.8327 0.19036C114.91 -1.11205 135.859 4.29175 153.677 15.6273L148.798 23.296C132.6 12.9908 113.555 8.0782 94.3932 9.26223L93.8327 0.19036Z" fill="#37913B"/>
<path d="M93.8327 0.19036C114.91 -1.11205 135.859 4.29175 153.677 15.6273L148.798 23.296C132.6 12.9908 113.555 8.0782 94.3932 9.26223L93.8327 0.19036Z" fill="#37913B"/>
<path d="M93.8327 0.19036C114.91 -1.11205 135.859 4.29175 153.677 15.6273L148.798 23.296C132.6 12.9908 113.555 8.0782 94.3932 9.26223L93.8327 0.19036Z" fill="#37913B"/>
<path d="M93.8327 0.19036C114.91 -1.11205 135.859 4.29175 153.677 15.6273L148.798 23.296C132.6 12.9908 113.555 8.0782 94.3932 9.26223L93.8327 0.19036Z" fill="#37913B"/>
<path d="M93.8327 0.19036C114.91 -1.11205 135.859 4.29175 153.677 15.6273L148.798 23.296C132.6 12.9908 113.555 8.0782 94.3932 9.26223L93.8327 0.19036Z" fill="#37913B"/>
<path d="M93.8327 0.19036C114.91 -1.11205 135.859 4.29175 153.677 15.6273L148.798 23.296C132.6 12.9908 113.555 8.0782 94.3932 9.26223L93.8327 0.19036Z" fill="#37913B"/>
<path d="M93.8327 0.19036C114.91 -1.11205 135.859 4.29175 153.677 15.6273L148.798 23.296C132.6 12.9908 113.555 8.0782 94.3932 9.26223L93.8327 0.19036Z" fill="#37913B"/>
<path d="M93.8327 0.19036C114.91 -1.11205 135.859 4.29175 153.677 15.6273L148.798 23.296C132.6 12.9908 113.555 8.0782 94.3932 9.26223L93.8327 0.19036Z" fill="#37913B"/>
<circle cx="158.5" cy="23.5" r="12.5" fill="#37913B"/>
<path d="M80.9363 110V98.12H76.7123V96.32H77.1923C79.5923 96.32 81.1763 94.784 81.5363 92.504H83.3843V110H80.9363ZM93.479 110.24C88.871 110.24 87.071 106.64 87.071 101.24C87.071 94.784 89.639 92.264 93.479 92.264C98.087 92.264 99.887 95.864 99.887 101.24C99.887 107.72 97.319 110.24 93.479 110.24ZM93.479 108.056C96.383 108.056 97.367 105.32 97.367 101.24C97.367 96.08 95.759 94.448 93.479 94.448C90.575 94.448 89.591 97.16 89.591 101.24C89.591 106.424 91.199 108.056 93.479 108.056Z" fill="#37913B"/>
<path d="M107.862 101.048C105.678 101.048 104.142 99.488 104.142 96.704C104.142 94.064 105.534 92.36 107.862 92.36C110.07 92.36 111.606 93.896 111.606 96.704C111.606 99.344 110.214 101.048 107.862 101.048ZM105.63 110L117.702 92.48H119.958L107.91 110H105.63ZM107.862 99.488C108.942 99.488 109.662 98.6 109.662 96.704C109.662 95.024 109.062 93.92 107.862 93.92C106.782 93.92 106.11 94.808 106.11 96.704C106.11 98.408 106.662 99.488 107.862 99.488ZM117.702 110.12C115.494 110.12 113.982 108.584 113.982 105.776C113.982 103.16 115.374 101.456 117.702 101.456C119.91 101.456 121.446 102.992 121.446 105.776C121.446 108.392 120.054 110.12 117.702 110.12ZM117.702 108.536C118.758 108.536 119.478 107.672 119.478 105.8C119.478 104.12 118.902 102.992 117.702 102.992C116.622 102.992 115.95 103.88 115.95 105.8C115.95 107.48 116.502 108.536 117.702 108.536Z" fill="#37913B"/>
</svg>
