<svg width="22" height="24" viewBox="0 0 22 24" fill="none" xmlns="http://www.w3.org/2000/svg">
<g clip-path="url(#clip0_1037_2646)">
<path d="M10.1388 11.4417L0.0898972 21.9698C0.202745 22.3698 0.405536 22.7386 0.682769 23.0481C0.960002 23.3576 1.30434 23.5997 1.68945 23.7558C2.07456 23.9118 2.49026 23.9778 2.90477 23.9485C3.31927 23.9193 3.72161 23.7957 4.08102 23.5872L15.3879 17.1475L10.1388 11.4417Z" fill="#EA4335"/>
<path d="M20.2999 9.65218L15.4105 6.85156L9.90674 11.6812L15.4328 17.1326L20.2851 14.362C20.7149 14.1369 21.075 13.7984 21.3262 13.3833C21.5774 12.9682 21.7102 12.4922 21.7102 12.007C21.7102 11.5218 21.5774 11.0459 21.3262 10.6307C21.075 10.2156 20.7149 9.87718 20.2851 9.6521L20.2999 9.65218Z" fill="#FBBC04"/>
<path d="M0.0898973 1.99194C0.0291929 2.2165 -0.00104265 2.4482 3.34767e-06 2.68082V21.281C0.000602761 21.5135 0.0308104 21.745 0.0898973 21.97L10.4833 11.7114L0.0898973 1.99194Z" fill="#4285F4"/>
<path d="M10.2137 11.9808L15.4104 6.85154L4.1185 0.381885C3.69365 0.133083 3.21045 0.00131666 2.71811 5.20116e-06C1.49631 -0.00236936 0.422166 0.808542 0.0898972 1.98437L10.2137 11.9808Z" fill="#34A853"/>
</g>
<defs>
<clipPath id="clip0_1037_2646">
<rect width="21.7102" height="24" fill="white"/>
</clipPath>
</defs>
</svg>
