<svg width="332" height="331" viewBox="0 0 332 331" fill="none" xmlns="http://www.w3.org/2000/svg">
<path d="M109.068 298.628C109.002 298.628 109.002 298.628 108.936 298.628C108.671 298.562 108.539 298.297 108.539 298.032L150.774 124.257C150.774 124.125 150.907 124.059 150.973 123.993L203.8 89.3701C203.933 89.3039 204.131 89.2377 204.264 89.3039L229.354 99.9621L239.151 99.5649C239.284 99.5649 239.35 99.5649 239.416 99.6311L261.328 113.401C261.461 113.467 261.527 113.665 261.593 113.798V128.097C261.593 128.362 261.394 128.627 261.063 128.627C260.732 128.627 260.534 128.428 260.534 128.097V114.063L239.019 100.558L229.287 100.955C229.221 100.955 229.155 100.955 229.089 100.889L204.131 90.2307L151.701 124.588L109.532 298.165C109.532 298.43 109.333 298.628 109.068 298.628Z" fill="#123014"/>
<path d="M155.872 149.215H149.053C148.788 149.215 148.523 149.016 148.523 148.685C148.523 148.354 148.722 148.156 149.053 148.156H155.872C156.136 148.156 156.401 148.354 156.401 148.685C156.401 149.016 156.203 149.215 155.872 149.215Z" fill="#123014"/>
<path d="M179.571 236.533C179.24 236.533 179.042 236.268 179.108 236.003L184.205 181.123L169.045 181.52L162.955 210.847C162.889 211.112 162.624 211.31 162.359 211.244C162.094 211.178 161.896 210.913 161.962 210.648L168.185 180.925C168.251 180.726 168.45 180.527 168.648 180.527L184.735 180.13C184.867 180.13 185 180.196 185.132 180.263C185.198 180.395 185.264 180.527 185.264 180.66L180.101 236.069C180.101 236.334 179.836 236.533 179.571 236.533Z" fill="#123014"/>
<path d="M136.012 253.811C135.945 253.811 135.945 253.811 135.879 253.811C135.614 253.745 135.482 253.48 135.548 253.215L148.722 210.317C148.788 210.119 148.987 209.986 149.185 209.986L165.471 210.582C165.603 210.582 165.735 210.648 165.802 210.781C165.868 210.913 165.934 211.046 165.934 211.178L162.889 233.487C162.823 233.752 162.624 233.951 162.359 233.885C162.094 233.818 161.896 233.62 161.962 233.355L164.875 211.575L149.516 210.979L136.475 253.48C136.409 253.678 136.21 253.811 136.012 253.811Z" fill="#123014"/>
<path d="M189.303 228.986C189.236 228.986 189.236 228.986 189.17 228.986C188.905 228.92 188.773 228.655 188.839 228.39L207.839 161.925C207.905 161.727 208.103 161.594 208.302 161.594L228.162 161.197C228.427 161.197 228.692 161.396 228.692 161.66V161.727L225.249 208.662L232.333 189.994C232.399 189.795 232.597 189.663 232.796 189.663L243.984 189.266C244.249 189.266 244.447 189.464 244.513 189.729L246.632 220.314C246.632 220.578 246.433 220.843 246.168 220.843C245.904 220.843 245.639 220.645 245.639 220.38L243.587 190.259L233.259 190.656L225.117 212.237C225.051 212.502 224.786 212.634 224.521 212.568C224.256 212.502 224.124 212.303 224.124 212.039L227.765 162.19L208.832 162.587L189.965 228.721C189.7 228.853 189.501 228.986 189.303 228.986Z" fill="#123014"/>
<path d="M222.734 236.003C222.403 236.003 222.204 235.738 222.204 235.473L223.462 219.784C223.462 219.519 223.727 219.321 223.992 219.321C224.256 219.321 224.455 219.585 224.455 219.85L223.197 235.54C223.197 235.804 222.999 236.003 222.734 236.003Z" fill="#123014"/>
<path d="M204.132 90.2306H204.065C203.801 90.1644 203.602 89.8996 203.668 89.6348L215.65 22.3094C215.65 22.0446 215.915 21.846 216.18 21.846C216.445 21.846 216.643 22.1108 216.643 22.3756V22.4418L204.661 89.7672C204.595 90.032 204.396 90.2306 204.132 90.2306Z" fill="#123014"/>
<path d="M224.786 112.143C224.72 112.143 224.653 112.143 224.587 112.077C224.322 111.944 224.19 111.679 224.322 111.415L228.89 100.293C229.023 100.028 229.287 99.8959 229.552 100.028C229.817 100.161 229.949 100.425 229.817 100.69L225.249 111.812C225.183 112.01 224.984 112.143 224.786 112.143Z" fill="#123014"/>
<path d="M200.556 121.477C200.424 121.477 200.225 121.411 200.159 121.278C200.027 121.08 200.093 120.749 200.292 120.616L217.371 109.031C217.504 108.965 217.702 108.899 217.835 108.965L232.134 114.46C232.399 114.592 232.531 114.857 232.399 115.122C232.332 115.387 232.001 115.519 231.737 115.387L217.636 109.958L200.755 121.345C200.755 121.477 200.689 121.477 200.556 121.477Z" fill="#123014"/>
<path d="M212.804 26.5463C212.804 26.5463 218.762 22.1771 228.493 29.8563C238.224 37.5355 227.897 44.5527 243.785 49.7163C259.673 54.8799 244.977 71.2313 253.715 73.2835C253.715 73.2835 246.698 74.4089 244.315 66.5973C239.681 52.6291 225.646 67.0607 221.939 55.4757C219.49 47.8627 209.163 48.4585 209.163 48.4585L212.804 26.5463Z" fill="#68FDBF"/>
<path d="M142.234 204.889C142.168 204.889 142.168 204.889 142.102 204.889C141.837 204.823 141.705 204.558 141.771 204.293L153.554 160.866C153.621 160.667 153.819 160.469 154.018 160.469H167.589C167.721 160.469 167.854 160.535 167.986 160.601C168.052 160.667 168.118 160.866 168.118 160.998L165.073 200.189C165.073 200.454 164.808 200.652 164.544 200.652C164.279 200.652 164.08 200.387 164.08 200.123L167.059 161.462H154.415L142.764 204.492C142.631 204.757 142.433 204.889 142.234 204.889Z" fill="#123014"/>
<path d="M186.257 297.702C185.992 297.702 185.794 297.437 185.794 297.172L188.508 237.129H173.414L162.359 288.897C162.227 289.162 161.962 289.228 161.697 289.096C161.498 289.029 161.432 288.831 161.432 288.632L172.62 236.467C172.686 236.268 172.885 236.069 173.083 236.069H189.038C189.17 236.069 189.302 236.136 189.369 236.202C189.435 236.334 189.501 236.4 189.501 236.533L186.787 297.106C186.787 297.437 186.522 297.702 186.257 297.702Z" fill="#123014"/>
<path d="M286.749 190.722C286.484 190.722 286.286 190.59 286.286 190.325L272.648 129.752L243.653 127.965L235.974 133.327C235.775 133.459 235.444 133.393 235.312 133.194C235.179 132.996 235.245 132.665 235.444 132.466L243.256 127.038C243.322 126.972 243.454 126.972 243.587 126.972L273.112 128.759C273.31 128.759 273.509 128.958 273.575 129.156L287.279 190.06C287.345 190.325 287.146 190.59 286.881 190.656C286.815 190.722 286.749 190.722 286.749 190.722Z" fill="#123014"/>
<path d="M236.702 295.451C236.437 295.451 236.238 295.252 236.172 294.921C236.172 292.273 234.385 256.459 234.385 256.062C234.385 255.797 234.517 255.598 234.782 255.532L246.566 253.745C246.764 253.745 246.897 253.811 247.029 253.943L274.105 290.618L273.244 268.772C273.244 268.507 273.377 268.309 273.641 268.243L288.139 265.528C288.404 265.462 288.669 265.661 288.735 265.926C288.801 266.19 288.603 266.455 288.338 266.521L274.303 269.169L275.164 292.273C275.164 292.538 274.965 292.803 274.701 292.803C274.502 292.803 274.37 292.737 274.303 292.604L246.433 254.87L235.444 256.591C235.643 260.961 237.231 292.472 237.231 295.054C237.165 295.252 236.967 295.451 236.702 295.451Z" fill="#123014"/>
<path d="M71.7313 258.643L60.4111 299.489L78.4837 299.025L92.5181 274.598L106.288 286.381C107.016 287.043 107.347 287.97 107.215 288.963L105.361 298.893H123.765L126.015 281.085C126.082 280.291 125.883 279.563 125.353 278.967L104.103 254.407L71.7313 258.643Z" fill="#231F20"/>
<path d="M129.59 166.89C129.457 166.89 129.325 166.824 129.193 166.691L124.095 160.204C124.029 160.138 123.963 160.005 123.963 159.873C123.963 159.476 123.963 150.141 124.89 147.493C125.883 144.581 127.604 143.72 132.569 143.389C133.959 143.323 136.21 144.978 137.534 147.162C138.659 149.082 138.858 150.87 137.997 152.26C137.732 152.723 137.269 153.451 136.739 154.312C135.482 156.364 133.827 159.145 132.701 160.866C131.576 162.653 130.715 164.507 130.053 166.493C129.987 166.691 129.855 166.824 129.656 166.824L129.59 166.89ZM124.956 159.74L129.391 165.367C130.053 163.646 130.848 161.925 131.841 160.402C132.9 158.747 134.621 155.967 135.813 153.915C136.342 153.054 136.806 152.26 137.07 151.863C137.931 150.472 137.137 148.685 136.607 147.758C135.415 145.772 133.496 144.382 132.569 144.448C127.736 144.713 126.545 145.64 125.75 147.891C124.956 150.141 124.956 158.483 124.956 159.74Z" fill="#231F20"/>
<path d="M95.6958 211.377C95.9606 211.112 123.367 158.549 123.367 158.549L130.914 166.758C130.914 166.758 112.974 215.68 106.95 219.056C100.926 222.432 95.6958 211.377 95.6958 211.377Z" fill="#68FDBF"/>
<path d="M94.9011 212.304C94.3715 212.899 93.5109 212.966 92.9151 212.436C92.8489 212.37 92.7165 212.304 92.6503 212.171C90.9953 210.251 89.3403 208.398 87.6191 206.478C86.0303 204.823 84.7063 202.969 83.6471 200.983C82.7203 198.997 82.3893 196.416 83.8457 194.761C84.3091 194.231 84.9711 193.768 85.4345 193.172C86.2951 192.046 86.2951 190.524 86.6923 189.134C87.3543 186.949 89.1417 185.294 91.3925 184.831C91.9883 184.764 92.5841 184.632 93.1799 184.433C94.9011 183.705 95.5631 181.653 96.9533 180.329C99.0055 178.409 102.448 178.674 104.964 179.998C108.34 181.785 110.855 186.088 109.134 189.597C107.81 192.311 105.096 193.437 102.911 195.224C100.661 197.144 100.992 199.726 100.33 202.374C99.7337 204.955 98.5421 207.272 96.7547 209.258C96.0927 209.987 96.0927 210.516 95.6293 211.244C95.4969 211.708 95.2321 212.039 94.9011 212.304Z" fill="#231F20"/>
<path d="M93.7761 213.296C93.1803 213.296 92.6507 212.965 92.3197 212.568L87.3547 206.875C85.7659 205.22 84.3757 203.3 83.2503 201.248C82.3235 199.262 81.8601 196.415 83.5151 194.496C83.7799 194.231 84.0447 193.966 84.3095 193.767C84.5743 193.503 84.8391 193.238 85.1039 192.973C85.5673 192.245 85.8983 191.384 85.9645 190.524C86.0307 190.06 86.1631 189.597 86.2955 189.133C87.0237 186.816 88.9435 185.029 91.3267 184.499C91.5253 184.433 91.7239 184.433 91.9225 184.367C92.3197 184.301 92.6507 184.235 93.0479 184.102C93.9747 183.705 94.5705 182.844 95.2325 181.918C95.6297 181.256 96.1593 180.66 96.6889 180.13C99.0059 177.946 102.647 178.343 105.229 179.733C108.803 181.653 111.451 186.221 109.598 189.994C108.605 191.98 106.95 193.172 105.295 194.297C104.633 194.76 103.971 195.29 103.309 195.82C101.786 197.144 101.588 198.732 101.257 200.586C101.124 201.248 101.058 201.976 100.859 202.704C100.264 205.352 99.0059 207.802 97.2185 209.854C96.9537 210.119 96.7551 210.516 96.6227 210.847C96.4903 211.178 96.2917 211.509 96.1593 211.774C95.8945 212.171 95.5635 212.502 95.2325 212.833L95.1663 212.899C94.7691 213.164 94.2395 213.296 93.7761 213.296ZM100.859 179.534C99.6017 179.468 98.3439 179.932 97.3509 180.792C96.8875 181.322 96.4241 181.851 96.0931 182.447C95.3649 183.44 94.6367 184.499 93.4451 185.029C93.0479 185.161 92.5845 185.294 92.1211 185.36L91.5915 185.492C89.5393 185.956 87.9505 187.478 87.2885 189.464C87.1561 189.928 87.0899 190.325 87.0237 190.788C86.8913 191.781 86.5603 192.774 85.9645 193.635C85.6997 193.966 85.3687 194.297 85.0377 194.562C84.7729 194.76 84.5743 194.959 84.3757 195.224C83.0517 196.746 83.4489 199.262 84.2433 200.917C85.3025 202.903 86.6265 204.69 88.1491 206.279L93.1141 211.972C93.4451 212.37 93.9085 212.634 94.6367 212.039L94.7029 211.972C94.9677 211.708 95.1663 211.443 95.3649 211.178C95.4973 210.913 95.6297 210.648 95.7621 210.384C95.9607 209.92 96.2255 209.457 96.5565 209.126C98.2115 207.206 99.4031 204.889 99.9989 202.44C100.131 201.778 100.264 201.049 100.396 200.387C100.661 198.401 100.992 196.548 102.779 195.025C103.441 194.496 104.169 193.966 104.898 193.436C106.486 192.311 108.009 191.318 108.87 189.531C110.458 186.287 108.075 182.315 104.898 180.594C103.574 179.932 102.183 179.601 100.859 179.534Z" fill="#231F20"/>
<path d="M103.574 189.398C105.824 190.325 105.56 194.032 106.155 196.085C106.486 197.21 108.803 197.74 109.134 198.865C109.333 199.527 107.546 199.659 107.413 200.388C107.678 201.712 108.208 203.698 108.472 204.823C108.936 206.677 104.169 208.133 103.176 207.802L105.427 213.694C105.427 213.694 105.295 217.335 100.926 216.739C96.5563 216.143 94.9675 213.959 94.9675 213.959L92.8491 205.485C92.8491 205.485 98.0127 204.558 98.8071 200.321C99.6015 196.085 98.8733 194.893 98.8733 194.893C99.9987 194.297 100.992 193.503 101.72 192.444C102.448 191.583 103.11 190.524 103.574 189.398Z" fill="white"/>
<path d="M101.918 217.401C101.587 217.401 101.19 217.401 100.859 217.335C96.3576 216.673 94.6364 214.422 94.5702 214.356C94.504 214.289 94.504 214.223 94.504 214.157L92.3194 205.75C92.2532 205.617 92.3194 205.485 92.3856 205.352C92.4518 205.22 92.5842 205.154 92.7166 205.154C92.7828 205.154 97.5492 204.227 98.2774 200.387C99.0056 196.548 98.4098 195.29 98.4098 195.29C98.2774 195.025 98.4098 194.76 98.6746 194.628C99.7338 194.098 100.594 193.304 101.323 192.311C102.051 191.384 102.647 190.391 103.11 189.332C103.242 189.067 103.507 188.935 103.772 189.067C105.692 189.862 106.023 192.179 106.288 194.165C106.354 194.827 106.486 195.422 106.619 196.018C106.751 196.415 107.347 196.746 107.876 197.144C108.605 197.607 109.399 198.07 109.598 198.799C109.796 199.527 109.068 199.858 108.538 200.123C108.274 200.189 108.075 200.321 107.876 200.52C108.075 201.38 108.34 202.506 108.605 203.433C108.737 203.962 108.869 204.426 108.936 204.757C109.068 205.419 108.803 206.147 108.274 206.544C107.016 207.537 105.493 208.199 103.904 208.331L105.89 213.561C105.89 213.627 105.957 213.694 105.957 213.76C105.89 214.819 105.427 215.812 104.633 216.474C103.904 217.136 102.911 217.401 101.918 217.401ZM95.497 213.76C95.828 214.091 97.4168 215.812 101.058 216.342C102.051 216.606 103.11 216.408 103.971 215.746C104.5 215.282 104.831 214.554 104.897 213.826L102.713 208C102.647 207.802 102.713 207.603 102.845 207.471C102.978 207.338 103.176 207.272 103.375 207.338C103.904 207.471 106.486 206.875 107.612 205.816C107.943 205.485 108.075 205.22 108.009 204.955C107.943 204.558 107.81 204.095 107.678 203.631C107.413 202.638 107.148 201.447 106.95 200.52C106.95 200.454 106.95 200.387 106.95 200.321C107.082 199.725 107.678 199.461 108.207 199.196C108.34 199.13 108.538 199.063 108.671 198.931C108.34 198.534 107.943 198.137 107.413 197.938C106.685 197.475 105.957 197.011 105.692 196.283C105.559 195.621 105.427 194.959 105.295 194.297C105.03 192.642 104.831 190.921 103.772 190.193C103.309 191.119 102.713 192.046 102.051 192.907C101.323 193.9 100.462 194.694 99.4028 195.29C99.5352 196.018 99.7338 197.541 99.2042 200.52C98.5422 204.293 94.7688 205.617 93.3786 205.948L95.497 213.76Z" fill="#231F20"/>
<path d="M99.6679 198.07C95.5635 194.562 92.7831 202.307 99.3369 203.962L99.6679 198.07Z" fill="white"/>
<path d="M99.3367 204.426H99.2043C96.7549 203.83 95.1661 202.241 94.9675 200.255C94.7689 198.931 95.3647 197.673 96.4901 196.945C97.5493 196.349 98.8071 196.68 99.9987 197.673C100.197 197.872 100.197 198.203 100.065 198.402C99.9325 198.6 99.5353 198.6 99.3367 198.468C98.4761 197.74 97.6155 197.475 96.8873 197.872C96.0929 198.402 95.7619 199.328 95.8943 200.189C96.0929 201.778 97.4169 202.969 99.4029 203.499C99.6677 203.565 99.8001 203.83 99.7339 204.095C99.7339 204.293 99.5353 204.426 99.3367 204.426Z" fill="#231F20"/>
<path d="M103.177 207.868C103.177 207.868 100.462 207.868 98.8735 206.478C98.8735 206.478 100.33 210.847 104.501 210.979L103.177 207.868Z" fill="#231F20"/>
<path d="M104.5 211.443C100.065 211.311 98.476 206.809 98.476 206.611C98.4098 206.412 98.476 206.147 98.6746 206.015C98.8732 205.882 99.0718 205.882 99.2704 206.015C100.727 207.206 103.242 207.273 103.309 207.273C103.507 207.273 103.706 207.405 103.772 207.604L105.03 210.715C105.096 210.847 105.096 211.046 104.964 211.178C104.831 211.377 104.699 211.443 104.5 211.443ZM100.065 207.736C100.859 209.06 102.183 210.053 103.706 210.384L102.845 208.332C101.918 208.266 100.925 208.067 100.065 207.736Z" fill="#231F20"/>
<path d="M104.457 196.069C104.659 195.983 104.638 195.477 104.409 194.939C104.181 194.4 103.832 194.033 103.63 194.118C103.428 194.204 103.45 194.71 103.678 195.249C103.906 195.787 104.255 196.155 104.457 196.069Z" fill="#231F20"/>
<path d="M90.135 207.868C90.135 207.868 103.176 208.398 106.486 215.481C109.73 222.366 107.546 239.048 104.169 253.149L104.037 254.407C103.375 256.459 78.219 259.305 71.7314 258.643C76.9612 246.794 80.4698 206.676 90.135 207.868Z" fill="#68FDBF"/>
<path d="M83.5811 203.896C76.6301 201.248 69.3481 212.303 74.4455 217.599C79.6753 221.902 86.0305 216.474 91.4589 215.282C95.3647 214.289 99.4029 214.223 103.375 213.627C103.706 213.495 104.5 213.429 104.633 213.296C105.361 208 85.7657 204.293 83.5811 203.896Z" fill="#68FDBF"/>
<path d="M140.447 215.812C140.447 215.812 140.315 210.119 141.639 209.192C142.963 208.265 143.426 213.694 143.426 213.694L140.447 215.812Z" fill="white"/>
<path d="M140.447 216.341C140.182 216.341 139.984 216.143 139.917 215.878C139.917 214.885 139.851 209.854 141.374 208.795C141.639 208.596 142.036 208.53 142.367 208.728C143.492 209.258 143.889 212.369 143.956 213.693C143.956 213.892 143.889 214.024 143.757 214.157L140.712 216.275C140.646 216.275 140.513 216.341 140.447 216.341ZM141.903 209.589C141.308 209.986 140.977 212.502 140.91 214.885L142.896 213.495C142.698 211.575 142.234 209.788 141.903 209.589Z" fill="#231F20"/>
<path d="M135.813 219.718C135.813 219.718 140.447 215.084 142.632 213.892C144.816 212.701 149.384 210.45 152.032 210.913C154.68 211.377 157.924 220.38 153.886 221.174C149.847 221.969 146.074 222.564 143.426 224.617C140.778 226.669 136.674 225.742 136.674 225.742L135.813 219.718Z" fill="white"/>
<path d="M138.858 226.338C138.064 226.338 137.335 226.272 136.541 226.139C136.342 226.073 136.21 225.941 136.144 225.742L135.283 219.85C135.283 219.718 135.283 219.519 135.416 219.453C135.614 219.254 140.116 214.753 142.367 213.561C144.353 212.502 149.185 210.053 152.098 210.516C154.15 210.847 156.202 215.084 156.269 218.129C156.335 220.181 155.54 221.439 154.018 221.77L152.959 221.969C149.384 222.631 146.074 223.293 143.757 225.08C142.3 225.941 140.579 226.404 138.858 226.338ZM137.071 225.212C138.064 225.345 141.109 225.676 143.095 224.153C145.544 222.233 148.987 221.571 152.694 220.843L153.753 220.645C155.011 220.38 155.276 219.056 155.209 217.997C155.143 215.084 153.157 211.575 151.899 211.377C149.251 210.979 144.286 213.561 142.83 214.356C140.976 215.349 137.137 219.056 136.276 219.916L137.071 225.212Z" fill="#231F20"/>
<path d="M86.957 224.617C86.957 224.617 99.7336 233.421 109.796 234.216C117.608 234.811 130.186 230.376 142.764 225.61L139.123 216.143C139.123 216.143 125.287 220.38 112.775 221.969C106.552 220.38 104.368 218.592 99.535 215.547L87.5528 217.533L86.957 224.617Z" fill="#68FDBF"/>
<path d="M111.981 234.878C111.253 234.878 110.458 234.812 109.73 234.745C104.566 234.017 93.8419 229.052 93.3785 228.854C93.1137 228.721 93.0475 228.456 93.1137 228.192C93.2461 227.927 93.5109 227.861 93.7757 227.927C93.9081 227.993 104.831 233.024 109.862 233.752C114.894 234.481 121.381 232.164 121.447 232.097C121.712 231.965 121.977 232.097 122.109 232.362C122.242 232.627 122.109 232.892 121.845 233.024C118.601 234.15 115.291 234.745 111.981 234.878Z" fill="#231F20"/>
<path d="M112.775 222.432H112.709C107.479 221.77 100.926 217.401 100.661 217.202C100.462 217.004 100.396 216.739 100.595 216.474C100.727 216.275 101.058 216.209 101.257 216.342C101.323 216.408 107.877 220.777 112.842 221.439C113.106 221.505 113.305 221.704 113.305 221.969C113.239 222.233 113.04 222.432 112.775 222.432Z" fill="#231F20"/>
<path d="M104.699 211.642C104.699 211.642 107.214 218.394 107.612 220.579L104.699 211.642Z" fill="#231F20"/>
<path d="M107.612 221.108C107.347 221.108 107.148 220.909 107.148 220.711C106.751 218.592 104.302 211.906 104.236 211.84C104.169 211.575 104.302 211.31 104.567 211.244C104.765 211.178 105.03 211.31 105.162 211.509C105.295 211.774 107.678 218.327 108.075 220.512C108.141 220.777 107.943 221.042 107.612 221.108Z" fill="#231F20"/>
<path d="M87.553 218.063C87.2882 218.063 87.0234 217.864 87.0234 217.599C87.0234 217.401 87.1558 217.202 87.3544 217.136C87.7516 217.003 96.6886 213.561 99.3366 213.561C100.661 213.561 101.918 213.495 103.242 213.296C103.507 213.23 103.772 213.429 103.838 213.693C103.904 213.958 103.706 214.223 103.441 214.289C102.117 214.488 100.727 214.62 99.3366 214.62C96.821 214.62 87.7516 218.129 87.6854 218.129C87.6854 217.996 87.6192 218.063 87.553 218.063Z" fill="#231F20"/>
<path d="M104.566 203.3C104.566 203.3 104.897 202.043 105.625 201.645C106.023 201.447 106.221 202.109 106.42 202.705C106.618 203.3 106.949 203.896 106.751 204.029C106.354 204.36 104.5 204.426 104.566 203.3Z" fill="white"/>
<path d="M105.891 204.756C105.493 204.756 105.096 204.69 104.699 204.492C104.236 204.293 103.971 203.763 104.037 203.3V203.234C104.103 203.101 104.434 201.711 105.361 201.248C105.56 201.115 105.758 201.115 105.957 201.248C106.354 201.38 106.553 201.91 106.751 202.439L106.95 202.837C107.215 203.499 107.479 204.161 106.95 204.492C106.685 204.69 106.288 204.756 105.891 204.756ZM105.096 203.366C105.096 203.499 105.162 203.565 105.229 203.631C105.56 203.763 105.957 203.83 106.288 203.697C106.222 203.565 106.155 203.3 106.089 203.168L105.891 202.704C105.824 202.572 105.758 202.307 105.692 202.175C105.427 202.506 105.229 202.903 105.096 203.366Z" fill="#231F20"/>
<path d="M210.42 132.599L216.246 127.965C218.827 130.745 221.806 133.128 224.984 135.114C228.824 137.497 235.841 139.483 235.841 141.337C235.841 143.191 230.346 145.772 224.852 145.243C219.357 144.713 210.685 142.595 210.685 142.595L210.42 132.599Z" fill="white"/>
<path d="M226.308 145.772C225.844 145.772 225.315 145.772 224.851 145.706C219.357 145.177 210.751 143.124 210.618 143.058C210.42 142.992 210.221 142.793 210.221 142.595L209.89 132.599C209.89 132.466 209.956 132.268 210.089 132.201L215.914 127.567C216.113 127.435 216.378 127.435 216.576 127.634C219.158 130.348 222.071 132.731 225.249 134.717C226.904 135.644 228.625 136.504 230.412 137.233C234.119 138.888 236.37 139.947 236.37 141.337C236.304 141.999 235.973 142.595 235.443 142.992C233.788 144.448 230.147 145.772 226.308 145.772ZM211.214 142.198C212.935 142.595 220.151 144.25 224.918 144.713C228.956 145.11 233.06 143.72 234.781 142.198C235.112 141.999 235.311 141.602 235.377 141.271C235.377 140.476 232.266 139.086 230.015 138.093C228.161 137.365 226.44 136.504 224.719 135.511C221.608 133.592 218.695 131.275 216.179 128.627L210.883 132.797L211.214 142.198Z" fill="#231F20"/>
<path d="M169.244 112.275C168.979 112.407 168.714 112.606 168.648 112.937C167.721 116.379 161.895 138.093 161.763 143.455C161.631 149.281 210.486 143.521 211.413 143.786C212.34 144.051 210.751 131.274 210.751 131.274L187.382 131.076C187.382 131.076 192.149 115.651 191.553 109.693C190.957 103.735 184.205 102.875 184.205 102.875L169.244 112.275Z" fill="#231F20"/>
<path d="M145.676 89.3696L148.059 133.326C148.059 133.326 144.551 134.121 144.551 136.504C144.551 138.887 144.154 146.037 145.345 146.831C146.537 147.626 147.464 142.661 147.728 139.748C147.993 136.835 153.753 137.365 154.812 137.1C155.871 136.835 157.725 98.3728 157.725 98.3728" fill="white"/>
<path d="M145.544 147.428C145.345 147.428 145.146 147.361 145.014 147.295C144.021 146.633 143.889 143.522 143.955 138.093C143.955 137.498 143.955 136.968 143.955 136.571C143.955 134.32 146.47 133.327 147.463 133.062L145.146 89.5025C145.146 89.2377 145.345 88.9729 145.61 88.9729C145.875 88.9729 146.139 89.1715 146.139 89.4363L148.523 133.393C148.523 133.658 148.39 133.857 148.125 133.923C148.125 133.923 144.948 134.651 144.948 136.571C144.948 136.968 144.948 137.498 144.948 138.16C144.882 140.079 144.815 145.905 145.544 146.501C146.073 146.104 146.868 143.257 147.132 139.815C147.397 137.1 151.303 136.968 153.421 136.836C153.819 136.836 154.15 136.769 154.348 136.769C155.076 134.452 156.334 112.805 157.062 98.4395C157.062 98.1747 157.327 97.9761 157.592 97.9761C157.857 97.9761 158.055 98.2409 158.055 98.5057C158.055 98.5719 157.592 108.237 156.996 117.77C155.805 137.431 155.341 137.564 154.812 137.696C154.348 137.762 153.951 137.829 153.488 137.829C151.634 137.895 148.258 138.093 148.125 139.881C148.059 140.543 147.463 146.633 145.941 147.361C145.808 147.428 145.676 147.428 145.544 147.428Z" fill="#231F20"/>
<path d="M143.823 108.568L160.902 108.303L149.913 94.0039L143.823 108.568Z" fill="#68FDBF"/>
<path d="M213.597 137.63L218.43 134.717C218.43 134.717 224.52 139.483 226.97 140.476C233.457 143.786 239.084 144.514 239.084 146.302C239.084 148.089 233.59 150.737 228.095 150.208C222.6 149.678 213.928 147.56 213.928 147.56L213.597 137.63Z" fill="white"/>
<path d="M229.419 150.804C228.956 150.804 228.426 150.804 227.963 150.738C222.468 150.208 213.862 148.156 213.73 148.09C213.531 148.023 213.332 147.825 213.332 147.626L213.001 137.63C213.001 137.431 213.068 137.299 213.266 137.167L218.099 134.254C218.297 134.121 218.496 134.188 218.695 134.32C218.761 134.386 224.785 139.02 227.102 140.013C229.485 141.205 231.935 142.198 234.45 143.058C237.628 144.184 239.481 144.912 239.481 146.302C239.415 146.964 239.084 147.56 238.555 147.957C236.966 149.48 233.259 150.804 229.419 150.804ZM214.392 147.229C216.113 147.626 223.329 149.281 228.095 149.745C232.133 150.142 236.238 148.752 237.959 147.229C238.29 147.03 238.488 146.699 238.555 146.302C238.555 145.574 236.502 144.846 234.185 143.985C231.67 143.125 229.154 142.065 226.771 140.874C224.586 139.947 219.621 136.24 218.43 135.247L214.127 137.829L214.392 147.229Z" fill="#231F20"/>
<path d="M164.146 112.606C163.815 112.739 163.55 113.003 163.484 113.334C162.491 117.373 156.004 142.992 155.871 149.281C155.673 156.1 213.929 149.347 214.922 149.678C215.915 150.009 214.061 136.504 214.061 136.504L182.153 134.651C182.153 134.651 193.34 117.637 192.678 110.62C192.016 103.603 187.978 100.161 187.978 100.161L164.146 112.606Z" fill="#231F20"/>
<path d="M136.408 104.927L136.144 110.554C136.144 110.554 133.231 140.211 133.032 142.992C132.834 145.772 125.485 145.838 124.36 147.427C123.235 149.016 122.308 155.967 123.764 156.629C125.221 157.291 138.262 154.709 139.917 151.532C141.572 148.354 147.662 116.71 148.258 114.724C148.854 112.738 148.655 104.596 148.655 104.596" fill="white"/>
<path d="M124.36 157.159C124.029 157.159 123.764 157.159 123.433 157.026C122.969 156.762 122.705 156.364 122.638 155.835C122.043 153.783 122.771 148.619 123.896 147.096C124.492 146.302 126.015 145.905 127.802 145.441C129.854 144.912 132.436 144.25 132.502 142.926C132.701 140.145 135.614 110.753 135.614 110.488L135.878 104.927C135.878 104.662 136.143 104.464 136.408 104.464C136.673 104.464 136.871 104.728 136.871 104.993L136.607 110.62C136.607 110.951 133.694 140.344 133.495 143.058C133.363 145.044 130.516 145.772 128.067 146.434C126.677 146.832 125.088 147.229 124.757 147.758C123.896 148.95 123.168 153.716 123.698 155.702C123.83 156.166 123.962 156.232 123.962 156.232C124.492 156.431 127.802 156.1 131.642 155.107C135.945 153.981 138.857 152.591 139.453 151.333C140.512 149.215 143.822 133.261 145.808 123.794C146.868 118.895 147.596 115.32 147.794 114.658C148.258 113.136 148.258 106.913 148.192 104.662C148.192 104.397 148.39 104.133 148.655 104.133C148.92 104.133 149.118 104.331 149.185 104.596C149.185 104.927 149.383 112.937 148.721 114.923C148.523 115.519 147.728 119.226 146.801 123.993C144.551 134.783 141.505 149.546 140.38 151.797C138.725 154.842 127.802 157.159 124.36 157.159Z" fill="#231F20"/>
<path d="M121.182 64.876C121.182 64.876 123.036 68.4508 125.287 70.3706C126.081 71.3636 126.743 74.2102 127.604 75.137C128.199 75.7328 128.994 74.475 129.59 75.0046C130.252 75.5342 130.847 76.13 131.443 76.792C132.171 77.6526 132.701 78.8442 133.363 78.5132C136.673 76.9244 136.673 74.4088 136.673 74.4088L140.579 78.116C140.579 78.116 150.575 69.179 150.244 68.9804C150.112 68.9142 146.537 66.0014 144.087 63.9492C140.182 60.8378 136.011 58.1898 131.576 56.0052C127.405 54.0192 121.182 62.0294 121.182 64.876Z" fill="white"/>
<path d="M133.165 79.0429C132.569 79.0429 132.105 78.3809 131.708 77.8513C131.51 77.5865 131.377 77.3217 131.112 77.1231C130.583 76.5273 129.987 75.9315 129.325 75.4019C129.259 75.3357 129.06 75.4681 128.862 75.5343C128.398 75.9315 127.736 75.8653 127.273 75.4681C126.677 74.6737 126.214 73.8131 125.949 72.8863C125.684 72.1581 125.353 71.4299 124.956 70.7679C122.639 68.7819 120.851 65.2733 120.719 65.1409C120.653 65.0747 120.653 65.0085 120.653 64.8761C120.719 62.7577 123.698 58.1899 127.074 56.2039C128.795 55.1447 130.45 54.8799 131.774 55.5419C136.276 57.7927 140.513 60.4407 144.419 63.6183C147 65.7367 150.31 68.4509 150.575 68.6495C150.708 68.7157 150.774 68.8481 150.84 69.0467C150.906 69.3777 150.906 69.7087 140.976 78.5795C140.778 78.7781 140.513 78.7781 140.314 78.5795L137.07 75.4681C136.739 76.4611 135.945 77.9837 133.628 79.0429C133.429 79.0429 133.297 79.0429 133.165 79.0429ZM129.325 74.3427C129.59 74.3427 129.788 74.4089 129.987 74.5413C130.649 75.0709 131.311 75.7329 131.907 76.3949C132.172 76.6597 132.37 76.9245 132.569 77.2555C132.767 77.5203 133.098 78.0499 133.231 78.0499C136.21 76.5935 136.276 74.4751 136.276 74.3427C136.276 74.1441 136.408 73.9455 136.607 73.8793C136.806 73.8131 137.004 73.8131 137.137 74.0117L140.711 77.3879C143.889 74.5413 148.523 70.3045 149.715 69.0467C148.523 68.1199 145.478 65.6043 143.889 64.2803C140.049 61.1689 135.879 58.5209 131.443 56.4025C130.186 55.8067 128.729 56.4025 127.736 56.9983C124.691 58.8519 121.977 63.0225 121.844 64.7437C122.904 66.6635 124.228 68.4509 125.816 69.9735L125.883 70.0397C126.412 70.7679 126.809 71.6285 127.074 72.4891C127.339 73.2835 127.736 74.0779 128.2 74.7399C128.266 74.7399 128.464 74.6737 128.597 74.6075C128.729 74.4751 128.994 74.3427 129.325 74.3427Z" fill="#231F20"/>
<path d="M134.687 51.1065C134.555 51.0403 134.422 50.9741 134.29 50.8417C133.297 50.2459 132.105 49.9811 130.98 50.1797C130.384 50.3121 128.133 51.4375 128.001 52.1657C128.332 50.5107 129.259 49.0543 130.649 48.0613C129.788 47.9951 128.862 48.1937 128.2 48.7233C125.883 50.1135 123.897 52.0995 122.573 54.4827C122.705 53.3573 123.036 52.2981 123.433 51.3051C119.925 52.7615 114.893 63.4859 120.918 66.2001C122.242 66.7959 122.705 64.4789 124.294 63.3535C126.081 62.0957 128.464 63.8831 132.966 67.4579C137.468 71.0327 140.513 69.7087 140.513 69.7087C141.506 69.3115 143.823 65.8691 144.088 64.1479C144.551 62.4267 142.962 63.6183 141.704 61.2351C139.983 58.1237 136.806 52.4967 134.687 51.1065Z" fill="#231F20"/>
<path d="M130.186 66.9945C130.318 66.0015 130.119 65.4057 130.715 64.5451C131.907 62.7577 135.68 64.6113 135.217 70.1721" fill="white"/>
<path d="M135.15 70.7679C134.819 70.7679 134.621 70.5031 134.621 70.2383C134.886 66.9945 133.628 65.0085 132.37 64.5451C131.907 64.3465 131.377 64.4789 131.046 64.8761C130.781 65.2733 130.649 65.8029 130.649 66.3325C130.649 66.5973 130.649 66.7959 130.583 67.1269C130.516 67.3917 130.318 67.5903 130.053 67.5903C129.788 67.5241 129.59 67.3255 129.656 67.0607C129.656 66.8621 129.722 66.5973 129.722 66.3325C129.722 65.6705 129.921 64.9423 130.252 64.4127C130.781 63.6183 131.84 63.2873 132.701 63.6845C134.422 64.2803 135.945 66.5973 135.614 70.3707C135.68 70.5693 135.415 70.7679 135.15 70.7679Z" fill="#231F20"/>
<path d="M136.938 85.3315C134.555 96.0559 134.555 112.275 134.555 112.275L148.986 114.658L151.634 100.491L161.895 120.881C163.683 121.344 165.669 121.079 167.257 120.219C176.128 115.85 193.208 104.927 190.891 101.55C181.755 89.7669 161.63 71.0985 149.648 64.4123C149.648 64.4123 138.328 74.5409 136.938 85.3315Z" fill="#68FDBF"/>
<path d="M131.708 76.3287C131.708 76.3287 133.231 75.0709 132.701 73.4821L131.708 76.3287Z" fill="white"/>
<path d="M131.708 76.7919C131.576 76.7919 131.443 76.7257 131.311 76.5933C131.179 76.3947 131.179 76.1299 131.377 75.9313C131.443 75.8651 132.635 74.8721 132.172 73.6143C132.105 73.3495 132.238 73.0847 132.503 73.0185C132.767 72.9523 133.032 73.0847 133.098 73.3495C133.694 75.2693 132.039 76.6595 131.973 76.7257C131.907 76.7919 131.774 76.7919 131.708 76.7919Z" fill="#231F20"/>
<path d="M127.252 69.8768C127.427 69.6899 127.201 69.1942 126.747 68.7696C126.293 68.3451 125.783 68.1524 125.609 68.3393C125.434 68.5262 125.66 69.0219 126.114 69.4465C126.568 69.8711 127.077 70.0637 127.252 69.8768Z" fill="#231F20"/>
<path d="M161.829 121.411C161.631 121.411 161.498 121.278 161.366 121.146L151.767 102.08L149.384 114.791C149.384 115.056 149.119 115.254 148.854 115.254C148.589 115.254 148.391 114.989 148.391 114.725V114.658L150.972 100.492C151.039 100.227 151.303 100.028 151.568 100.094C151.701 100.094 151.833 100.227 151.899 100.359L162.16 120.749C162.293 121.014 162.16 121.278 161.962 121.411C162.028 121.345 161.895 121.411 161.829 121.411Z" fill="#231F20"/>
<path d="M214.061 137.1L182.152 135.247C181.954 135.247 181.821 135.114 181.755 134.982C181.689 134.849 181.689 134.651 181.755 134.452C184.8 129.818 187.448 124.919 189.832 119.888C189.964 119.623 190.229 119.491 190.494 119.623C190.758 119.756 190.891 120.021 190.758 120.285C188.508 125.118 185.992 129.818 183.079 134.32L214.193 136.107C214.458 136.107 214.723 136.306 214.723 136.637C214.723 136.968 214.524 137.166 214.193 137.166L214.061 137.1Z" fill="white"/>
</svg>
