<svg width="16" height="21" viewBox="0 0 16 21" fill="none" xmlns="http://www.w3.org/2000/svg">
<path d="M7.7637 0.00226468C6.31612 0.0345336 4.90493 0.461992 3.68275 1.2384C2.46058 2.01481 1.47395 3.11061 0.829601 4.40728C0.185253 5.70395 -0.0922887 7.15211 0.0269948 8.59513C0.146278 10.0381 0.657847 11.4211 1.50637 12.5943L1.58376 12.6988L7.21421 20.3338C7.32946 20.4895 7.4804 20.6154 7.65436 20.7007C7.82831 20.7861 8.02021 20.8285 8.21393 20.8243C8.40766 20.8201 8.59756 20.7695 8.76768 20.6768C8.9378 20.584 9.08318 20.4518 9.19163 20.2912L14.2726 12.7337C15.2361 11.267 15.894 9.73462 15.894 7.92746C15.8922 6.86983 15.6792 5.8232 15.2674 4.84903C14.8556 3.87485 14.2534 2.99275 13.4961 2.25451C12.7387 1.51626 11.8415 0.936749 10.8571 0.549987C9.87276 0.163225 8.82103 -0.0229921 7.7637 0.00226468ZM7.95332 12.6408C7.05845 12.6415 6.18346 12.3769 5.43903 11.8803C4.6946 11.3837 4.11419 10.6774 3.77121 9.8509C3.42822 9.02437 3.33809 8.11468 3.5122 7.23692C3.68631 6.35915 4.11684 5.55274 4.74934 4.9197C5.38183 4.28666 6.18788 3.85544 7.0655 3.68057C7.94312 3.50571 8.85288 3.59507 9.6797 3.93735C10.5065 4.27962 11.2133 4.85943 11.7105 5.60344C12.2077 6.34744 12.4732 7.2222 12.4732 8.11707C12.4732 9.31616 11.9971 10.4662 11.1496 11.3144C10.302 12.1627 9.15241 12.6398 7.95332 12.6408Z" fill="#FF725E"/>
</svg>
