<svg width="49" height="49" viewBox="0 0 49 49" fill="none" xmlns="http://www.w3.org/2000/svg">
<path d="M29.5031 21.7879C29.4789 21.7832 29.4644 21.772 29.4611 21.7463L28.8792 20.0695C28.8679 20.0422 28.8838 20.0035 28.9095 20.0002C28.9368 19.9889 28.9755 20.0048 28.9869 20.0321C28.9869 20.0321 28.9869 20.0321 28.9853 20.0402L29.5591 21.7154C29.5704 21.7427 29.5545 21.7813 29.5272 21.7927C29.5272 21.7927 29.5272 21.7927 29.5192 21.7911C29.5192 21.7911 29.5111 21.7895 29.5031 21.7879Z" fill="#231F20"/>
<path d="M28.6063 20.5594C28.5902 20.5562 28.5757 20.545 28.5692 20.5354C28.5498 20.5065 28.5561 20.4743 28.585 20.4549C28.6186 20.4114 28.9606 19.8183 29.1571 19.4557C29.1714 19.4251 29.2068 19.4154 29.2374 19.4297C29.268 19.4441 29.2778 19.4794 29.2634 19.51C28.7058 20.5204 28.6689 20.5382 28.6497 20.5512C28.632 20.556 28.6143 20.5609 28.6063 20.5594Z" fill="#231F20"/>
<path d="M31.3516 21.9919C31.3516 21.9919 31.7677 22.341 31.7488 22.8637C31.7192 23.5682 31.3144 23.7144 31.3144 23.7144L31.3516 21.9919Z" fill="#231F20"/>
<path d="M13.5158 25.5035C13.5158 25.5035 13.1257 25.2766 12.9345 25.3142C12.7433 25.3519 11.0693 27.1544 11.1631 27.273C11.2568 27.3917 11.8712 27.412 11.8712 27.412L13.5158 25.5035Z" fill="white"/>
<path d="M13.0673 25.3155C13.2266 25.3551 13.3732 25.4173 13.515 25.5036L11.8704 27.4121C11.7048 27.4047 11.5487 27.3908 11.3862 27.3672C11.3042 27.3595 11.2269 27.3276 11.1623 27.2732C11.0606 27.1529 12.7345 25.3505 12.9338 25.3144C12.9772 25.3062 13.019 25.306 13.0673 25.3155ZM13.0894 25.2028C13.0331 25.1918 12.9671 25.1872 12.9061 25.2003C12.6457 25.2495 11.1706 26.8904 11.0543 27.1851C11.0271 27.2383 11.0322 27.2978 11.0645 27.3459C11.1114 27.4052 11.2032 27.4483 11.3641 27.4799C11.5331 27.513 11.6972 27.5285 11.8725 27.5295L11.9304 27.5325L11.964 27.4889L13.6086 25.5805L13.7047 25.474L13.5854 25.4004C13.4275 25.311 13.2648 25.2456 13.0894 25.2028Z" fill="#231F20"/>
<path d="M13.2855 34.6757C14.9298 34.9983 16.5243 33.9269 16.8469 32.2826C17.1695 30.6383 16.0981 29.0438 14.4538 28.7212C12.8095 28.3986 11.215 29.47 10.8924 31.1143C10.5698 32.7586 11.6413 34.3531 13.2855 34.6757Z" fill="#231F20"/>
<path d="M13.2748 34.732C11.6012 34.4036 10.5081 32.777 10.8365 31.1033C11.1648 29.4296 12.7915 28.3365 14.4652 28.6649C16.1389 28.9933 17.232 30.6199 16.9036 32.2936C16.5672 33.9657 14.9485 35.0604 13.2748 34.732ZM14.4431 28.7775C12.8338 28.4618 11.2649 29.5161 10.9572 31.1269C10.6414 32.7363 11.6957 34.3052 13.3066 34.6129C14.9159 34.9286 16.4768 33.8728 16.7925 32.2635C17.1067 30.6622 16.0524 29.0933 14.4431 28.7775Z" fill="#231F20"/>
<path d="M13.4577 33.7985C14.6176 34.0261 15.7423 33.2703 15.9699 32.1104C16.1975 30.9505 15.4417 29.8258 14.2818 29.5982C13.1219 29.3706 11.9972 30.1264 11.7696 31.2863C11.542 32.4462 12.2978 33.571 13.4577 33.7985Z" fill="white"/>
<path d="M14.2825 29.5982C15.4412 29.8255 16.206 30.9533 15.9787 32.112C15.7513 33.2707 14.6236 34.0355 13.4649 33.8081C12.3062 33.5808 11.5414 32.4531 11.7687 31.2944C11.9896 30.126 13.1158 29.3693 14.2825 29.5982ZM14.3046 29.4855C13.0815 29.2456 11.8976 30.0411 11.6576 31.2642C11.4177 32.4873 12.2117 33.6792 13.4347 33.9192C14.6578 34.1592 15.8498 33.3652 16.0913 32.1341C16.3232 30.9094 15.5277 29.7255 14.3046 29.4855Z" fill="#231F20"/>
<path d="M13.7057 32.5353C14.1679 32.6259 14.6161 32.3248 14.7068 31.8626C14.7974 31.4004 14.4963 30.9523 14.0341 30.8616C13.5719 30.7709 13.1238 31.0721 13.0331 31.5342C12.9424 31.9964 13.2436 32.4446 13.7057 32.5353Z" fill="#D1D3D4"/>
<path d="M15.2185 29.2556C13.978 29.5303 12.6067 30.9826 14.2483 31.7727C15.1795 32.2228 21.0658 33.2272 21.0658 33.2272L20.2023 30.601C20.1927 30.6075 16.4252 28.9826 15.2185 29.2556Z" fill="#231F20"/>
<path d="M17.7729 32.6812C16.244 32.3812 14.6732 32.0396 14.2141 31.8242C13.5117 31.4858 13.396 31.0536 13.4302 30.7512C13.5097 30.0481 14.4094 29.3807 15.1967 29.2009C16.4035 28.9279 20.0581 30.4889 20.2127 30.5527C20.2288 30.5558 20.2418 30.5751 20.2482 30.5847L21.1118 33.2109C21.1167 33.2286 21.1119 33.2527 21.1007 33.2672C21.0895 33.2817 21.0638 33.2851 21.0461 33.2899C20.9254 33.2663 19.3822 32.9969 17.7729 32.6812ZM16.3247 29.372C15.8821 29.2852 15.488 29.2497 15.2341 29.3085C14.4998 29.4736 13.6305 30.1136 13.5621 30.7603C13.5201 31.1449 13.7642 31.4768 14.2764 31.7194C15.1319 32.1296 20.2218 33.0196 20.9813 33.1519L20.1536 30.6414C19.8975 30.541 17.7972 29.661 16.3247 29.372Z" fill="#231F20"/>
<path d="M31.5687 38.2626C33.213 38.5852 34.8075 37.5138 35.1301 35.8695C35.4527 34.2252 34.3813 32.6307 32.737 32.3081C31.0927 31.9855 29.4982 33.057 29.1756 34.7012C28.853 36.3455 29.9245 37.94 31.5687 38.2626Z" fill="#231F20"/>
<path d="M31.5561 38.3188C29.8824 37.9904 28.7893 36.3638 29.1177 34.6901C29.4461 33.0164 31.0728 31.9233 32.7465 32.2517C34.4201 32.58 35.5132 34.2067 35.1848 35.8804C34.8565 37.5541 33.2298 38.6472 31.5561 38.3188ZM32.7244 32.3643C31.115 32.0486 29.5477 33.0948 29.2304 34.7122C28.913 36.3295 29.9608 37.8888 31.5782 38.2061C33.1956 38.5235 34.7549 37.4757 35.0722 35.8583C35.3879 34.249 34.3401 32.6897 32.7244 32.3643Z" fill="#231F20"/>
<path d="M31.7409 37.3853C32.9008 37.6129 34.0256 36.8571 34.2531 35.6972C34.4807 34.5373 33.7249 33.4126 32.565 33.185C31.4051 32.9574 30.2804 33.7132 30.0528 34.8731C29.8252 36.033 30.581 37.1578 31.7409 37.3853Z" fill="white"/>
<path d="M32.564 33.1851C33.7227 33.4124 34.4875 34.5402 34.2602 35.6989C34.0328 36.8576 32.9051 37.6224 31.7464 37.395C30.5877 37.1677 29.8229 36.04 30.0502 34.8813C30.2791 33.7145 31.4053 32.9578 32.564 33.1851ZM32.5861 33.0724C31.363 32.8325 30.1711 33.6264 29.9311 34.8495C29.6911 36.0726 30.4851 37.2646 31.7082 37.5045C32.9313 37.7445 34.1232 36.9505 34.3632 35.7275C34.6128 34.4979 33.8092 33.3124 32.5861 33.0724Z" fill="#231F20"/>
<path d="M31.9889 36.1221C32.4511 36.2127 32.8993 35.9116 32.99 35.4494C33.0806 34.9872 32.7795 34.539 32.3173 34.4484C31.8551 34.3577 31.407 34.6588 31.3163 35.121C31.2256 35.5832 31.5268 36.0314 31.9889 36.1221Z" fill="#D1D3D4"/>
<path d="M30.3752 24.115L28.5168 24.7281C28.5168 24.7281 28.5938 30.3837 28.3771 30.9345C28.1604 31.4853 27.8544 31.8097 27.4136 31.7566C26.9727 31.7035 23.865 31.0604 23.1891 30.9278C22.5132 30.7952 25.1653 26.4772 25.1653 26.4772L16.1934 24.7169C16.1934 24.7169 14.304 24.764 12.9701 25.8978C11.6363 27.0316 10.4889 29.4722 10.6828 29.7192C10.8767 29.9661 19.8547 31.6106 19.8547 31.6106L20.5104 33.2517L27.6799 34.6584C28.7501 34.8683 30.5106 32.1135 30.5106 32.1135L35.7006 33.1318C35.7006 33.1318 35.349 31.5169 33.9716 30.8706C32.5943 30.2244 31.9668 30.143 31.9668 30.143C31.9668 30.143 32.7 30.1114 32.831 29.4435C32.9621 28.7757 31.3609 24.9686 30.3752 24.115Z" fill="#263238"/>
<path d="M15.904 24.7355C15.904 24.7355 14.6894 23.3022 15.5444 23.1608C16.3995 23.0193 24.8706 24.6062 25.3897 25.3681C25.9087 26.1301 25.6165 26.7246 25.0007 26.7542C24.3849 26.7838 15.904 24.7355 15.904 24.7355Z" fill="#231F20"/>
<path d="M28.7187 24.9268C28.6574 24.898 27.6821 23.3529 27.8622 22.4774C28.0423 21.6019 28.871 21.2966 29.5859 21.5287C30.3008 21.7609 31.3577 21.868 31.3577 21.868L31.3072 23.872L29.9641 23.8174L30.3008 24.4015L28.7187 24.9268Z" fill="#263238"/>
<path d="M19.7705 31.1429C19.7625 31.1414 19.7464 31.1382 19.7399 31.1286C19.7189 31.1077 19.7188 31.0659 19.7396 31.0449C19.7604 31.024 22.142 28.8088 20.7801 27.1044C19.638 25.6853 16.449 24.8173 14.1966 25.8628C12.4033 26.6976 11.4863 29.2418 11.4735 29.2644C11.4592 29.295 11.4319 29.3064 11.3997 29.3C11.3691 29.2857 11.3577 29.2584 11.3641 29.2262C11.552 28.7366 11.7867 28.2646 12.0584 27.8165C12.4789 27.1219 13.1863 26.1994 14.1512 25.7536C16.0279 24.8767 19.4466 25.255 20.8699 27.03C22.2932 28.8051 19.8459 31.0992 19.8235 31.1283C19.8123 31.1428 19.7866 31.1461 19.7705 31.1429Z" fill="#231F20"/>
<path d="M23.1726 30.3231L20.9678 29.8905C20.9356 29.8842 20.9162 29.8554 20.9225 29.8232C20.9289 29.791 20.9577 29.7716 20.9899 29.7779L23.1947 30.2105C23.2269 30.2168 23.2463 30.2457 23.24 30.2778C23.2336 30.31 23.2048 30.3294 23.1726 30.3231Z" fill="#231F20"/>
<path d="M27.3729 33.7542L21.0402 32.5117C21.008 32.5054 20.9886 32.4765 20.9949 32.4444C21.0012 32.4122 21.0301 32.3928 21.0623 32.3991L27.395 33.6415C27.6927 33.6999 28.3584 33.2456 29.1419 32.4467C30.3531 31.2136 31.5176 29.4951 31.3621 28.7543C31.2279 28.1179 30.8502 27.743 30.4951 27.3809C30.14 27.0187 29.8043 26.6854 29.6881 26.1278C29.4507 24.995 29.977 24.2292 30.001 24.1921C30.0218 24.1711 30.0572 24.1613 30.0797 24.1741C30.1088 24.1965 30.1105 24.2303 30.0977 24.2528C29.7717 24.8072 29.6664 25.4718 29.8021 26.1001C29.907 26.6304 30.2362 26.954 30.5784 27.2969C30.9481 27.6703 31.3322 28.0548 31.4762 28.7265C31.6528 29.53 30.4483 31.2824 29.2274 32.522C28.8301 32.9287 27.8637 33.8505 27.3729 33.7542Z" fill="#231F20"/>
<path d="M27.4239 34.6835C27.3032 34.6598 27.1745 34.6345 27.0151 34.5949C26.8075 34.5458 26.542 34.4937 26.2201 34.4306L23.267 33.8512C23.2348 33.8449 23.2154 33.816 23.2217 33.7838C23.2281 33.7516 23.2569 33.7322 23.2891 33.7385L26.2503 34.3195C26.5721 34.3827 26.828 34.4412 27.0453 34.4838C28.0303 34.7022 28.0866 34.7132 28.7823 34.106C29.64 33.3551 31.6539 30.416 31.6763 30.387C31.6971 30.366 31.7325 30.3562 31.755 30.369C31.7841 30.3914 31.7858 30.4252 31.773 30.4478C31.6914 30.5654 29.7351 33.4239 28.8582 34.1877C28.2315 34.7416 28.0596 34.8082 27.4239 34.6835Z" fill="#231F20"/>
<path d="M17.6565 27.9037L14.462 27.2769C14.4298 27.2706 14.4104 27.2417 14.4167 27.2095C14.423 27.1773 14.4519 27.1579 14.4841 27.1642L17.6786 27.791C17.7107 27.7973 17.7301 27.8262 17.7238 27.8584C17.7175 27.8906 17.6886 27.91 17.6565 27.9037Z" fill="#231F20"/>
<path d="M17.301 28.2684L14.1065 27.6416C14.0743 27.6353 14.0549 27.6065 14.0612 27.5743C14.0675 27.5421 14.0964 27.5227 14.1286 27.529L17.3231 28.1557C17.3553 28.1621 17.3747 28.1909 17.3684 28.2231C17.362 28.2553 17.3332 28.2747 17.301 28.2684Z" fill="#231F20"/>
<path d="M16.9358 28.6397L13.7413 28.013C13.7091 28.0067 13.6897 27.9778 13.696 27.9456C13.7023 27.9134 13.7312 27.894 13.7634 27.9003L16.9579 28.5271C16.99 28.5334 17.0094 28.5623 17.0031 28.5945C16.9968 28.6267 16.9679 28.6461 16.9358 28.6397Z" fill="#231F20"/>
<path d="M16.5803 29.0044L13.3858 28.3776C13.3536 28.3713 13.3342 28.3424 13.3405 28.3102C13.3468 28.278 13.3757 28.2586 13.4079 28.265L16.6024 28.8917C16.6346 28.898 16.654 28.9269 16.6477 28.9591C16.6413 28.9913 16.6044 29.0091 16.5803 29.0044Z" fill="#231F20"/>
<path d="M28.5044 24.7844C28.4803 24.7796 28.4658 24.7684 28.4625 24.7427C28.4511 24.7154 28.4671 24.6767 28.4944 24.6654L30.3512 24.0604C30.3785 24.049 30.4156 24.073 30.4189 24.0987C30.4222 24.1244 30.4078 24.155 30.3805 24.1664L28.5221 24.7795C28.5205 24.7875 28.5125 24.7859 28.5044 24.7844Z" fill="#231F20"/>
<path d="M28.4935 23.0943C28.7023 23.1352 28.9049 22.9991 28.9459 22.7903C28.9868 22.5814 28.8507 22.3789 28.6419 22.3379C28.433 22.2969 28.2305 22.433 28.1895 22.6419C28.1485 22.8507 28.2846 23.0533 28.4935 23.0943Z" fill="#231F20"/>
<path d="M24.846 26.0554C23.7516 25.8407 21.0205 25.2798 20.0638 24.8748C19.0217 24.4364 19.1009 24.1177 19.139 23.9664C19.1406 23.9583 19.1437 23.9422 19.1453 23.9342C19.1339 23.9069 19.1563 23.8778 19.1836 23.8665C19.219 23.8567 19.248 23.8791 19.2513 23.9048C19.2531 23.9386 19.2564 23.9643 19.242 23.9949C19.2119 24.106 19.1517 24.37 20.102 24.7653C21.2665 25.2612 25.272 26.0136 25.3122 26.0215C25.3444 26.0278 25.3638 26.0567 25.3575 26.0889C25.3512 26.1211 25.3223 26.1405 25.2901 26.1342C25.274 26.131 25.1034 26.1059 24.846 26.0554Z" fill="white"/>
<path d="M28.1387 15.537C28.1387 15.537 28.2651 16.2554 28.14 16.3395C28.0149 16.4236 27.7923 16.2378 27.7923 16.2378" fill="#A87440"/>
<path d="M28.0162 16.4157C27.9213 16.3887 27.8375 16.3472 27.7584 16.2815C27.7375 16.2607 27.7277 16.2254 27.7485 16.2044C27.7693 16.1834 27.8047 16.1736 27.8257 16.1945C27.8902 16.2489 28.0401 16.3368 28.1074 16.2915C28.1572 16.2511 28.1414 15.9054 28.0774 15.5503C28.0757 15.5165 28.09 15.4859 28.1238 15.4842C28.1576 15.4824 28.1882 15.4968 28.1899 15.5306C28.2293 15.7556 28.3069 16.2972 28.1721 16.3878C28.132 16.4217 28.0726 16.4267 28.0162 16.4157Z" fill="#231F20"/>
<path d="M28.5119 14.2734C28.6936 14.7101 28.3451 15.2936 28.1729 15.7027C28.0086 16.0715 27.8444 16.4404 27.664 16.8061C27.5522 17.0349 26.9338 16.7799 26.8562 16.6643L26.0135 17.9781C25.7732 17.7972 25.5537 17.5954 25.3567 17.3646C24.9579 16.927 25.1092 16.5389 25.1092 16.5389C25.4555 15.7962 26.0687 15.0558 26.5439 14.3803C26.702 14.0854 26.9988 13.893 27.3284 13.8741C27.6659 13.8149 28.0438 13.8055 28.3115 14.0168C28.4066 14.0856 28.4729 14.1738 28.5119 14.2734Z" fill="#A87440"/>
<path d="M26.0034 18.0264C25.9953 18.0248 25.9873 18.0232 25.9808 18.0136C25.7405 17.8328 25.5146 17.6213 25.3176 17.3904C24.9058 16.9336 25.0539 16.5198 25.057 16.5037C25.3251 15.9463 25.7268 15.39 26.1156 14.8563C26.242 14.6805 26.3764 14.5064 26.4932 14.3371C26.661 14.0357 26.969 13.8288 27.3163 13.805C27.6104 13.754 28.0348 13.7203 28.3461 13.9652C28.4396 14.0421 28.5123 14.1399 28.5658 14.2507C28.7313 14.6425 28.5015 15.1322 28.3164 15.522C28.2861 15.5913 28.2477 15.659 28.2271 15.7218C28.0628 16.0907 27.8985 16.4595 27.7181 16.8252C27.6766 16.909 27.5931 16.9511 27.5014 16.9499C27.2763 16.9475 27.0573 16.8711 26.8735 16.7431L26.066 18.0052C26.0548 18.0198 26.0452 18.0262 26.0275 18.0311C26.0194 18.0295 26.0114 18.028 26.0034 18.0264ZM27.947 13.912C27.7443 13.8806 27.5433 13.8829 27.3424 13.9271C27.0289 13.9492 26.7417 14.1351 26.5948 14.4155C26.478 14.5848 26.3516 14.7605 26.2172 14.9347C25.8299 15.4604 25.4283 16.0167 25.1714 16.5596C25.1698 16.5676 25.0424 16.9187 25.4058 17.3242C25.5899 17.5358 25.7868 17.7248 26.0045 17.8929L26.812 16.6308C26.8232 16.6162 26.8424 16.6033 26.8585 16.6065C26.8762 16.6016 26.8988 16.6144 26.9036 16.632C26.9425 16.6898 27.2695 16.8542 27.4817 16.8374C27.5493 16.8339 27.5862 16.8161 27.6021 16.7774C27.7809 16.4198 27.9548 16.0444 28.1095 15.682C28.1382 15.6208 28.1685 15.5515 28.1988 15.4823C28.3728 15.1069 28.5882 14.6478 28.447 14.3026C28.4065 14.2111 28.3467 14.1325 28.2596 14.0653C28.1837 13.9835 28.0677 13.9357 27.947 13.912Z" fill="#231F20"/>
<path d="M27.7703 16.518C27.7703 16.518 27.4051 16.463 27.3906 16.0256L27.7703 16.518Z" fill="white"/>
<path d="M27.7602 16.5741C27.5043 16.5155 27.3314 16.2894 27.3401 16.0321C27.3384 15.9983 27.3673 15.9789 27.393 15.9756C27.4267 15.9739 27.4477 15.9947 27.4494 16.0284C27.4589 16.4063 27.7662 16.4583 27.7823 16.4614C27.8145 16.4678 27.8339 16.4966 27.8292 16.5208C27.8293 16.5626 27.8004 16.582 27.7602 16.5741Z" fill="#231F20"/>
<path d="M26.8576 16.6564C26.8576 16.6564 26.585 16.4274 26.5325 16.1413C26.5325 16.1413 26.0735 16.8619 26.493 17.2366L26.8576 16.6564Z" fill="#231F20"/>
<path d="M26.4744 17.2914C26.4663 17.2898 26.4583 17.2882 26.4438 17.277C25.9953 16.8798 26.4573 16.1432 26.4733 16.1045C26.486 16.082 26.5118 16.0787 26.5279 16.0818C26.552 16.0866 26.573 16.1074 26.5779 16.1251C26.6271 16.3854 26.8852 16.6032 26.8852 16.6032C26.9061 16.624 26.9095 16.6497 26.8951 16.6803L26.5225 17.259C26.5113 17.2735 26.5017 17.28 26.484 17.2849C26.4905 17.2945 26.4824 17.2929 26.4744 17.2914ZM26.5206 16.2893C26.4232 16.4875 26.2687 16.8917 26.4867 17.1434L26.7905 16.6598C26.676 16.5621 26.5854 16.4274 26.5206 16.2893Z" fill="#231F20"/>
<path d="M28.5106 15.3925C28.5297 15.3378 27.5102 14.9121 27.5102 14.9121C27.5102 14.9121 27.324 15.0093 27.4715 15.3223C27.6189 15.6354 28.2922 15.9095 28.5106 15.3925Z" fill="#231F20"/>
<path d="M27.9589 15.7277C27.7336 15.6835 27.5047 15.5299 27.4221 15.3549C27.2503 14.9953 27.4846 14.8658 27.4846 14.8658C27.5023 14.8609 27.5199 14.856 27.5345 14.8672C28.6072 15.32 28.5912 15.3587 28.5625 15.4199C28.4908 15.6148 28.3064 15.7457 28.0973 15.7465C28.0475 15.745 27.9992 15.7356 27.9589 15.7277ZM27.5204 14.9815C27.4884 15.017 27.4292 15.1056 27.5232 15.3079C27.6429 15.5069 27.8605 15.6331 28.0953 15.6291C28.2449 15.6333 28.3796 15.5428 28.4402 15.4043C28.3355 15.3419 27.9134 15.1505 27.5204 14.9815Z" fill="#231F20"/>
<path d="M27.4984 14.9688C27.4903 14.9672 27.4903 14.9672 27.4823 14.9656L27.1053 14.7998C27.0747 14.7854 27.065 14.7501 27.0777 14.7275C27.0921 14.6969 27.1274 14.6871 27.15 14.6999L27.5269 14.8658C27.5575 14.8801 27.5673 14.9155 27.5545 14.938C27.5498 14.9622 27.5225 14.9735 27.4984 14.9688Z" fill="#231F20"/>
<path d="M28.4845 14.8861C28.5825 14.8552 28.6611 14.7954 28.7122 14.7052C28.7553 14.6134 28.7517 14.504 28.7207 14.406C28.6083 13.9996 28.1828 13.7406 27.7694 13.718C27.5812 13.6978 27.398 13.7371 27.2246 13.8117C26.9934 13.9251 26.6428 14.3493 26.9138 14.5863C27.0074 14.6632 27.1554 14.6755 27.2665 14.7057C27.4499 14.75 27.6271 14.8266 27.809 14.879C28.0247 14.9296 28.2596 14.9674 28.4845 14.8861Z" fill="white"/>
<path d="M27.9428 14.9636C27.8946 14.9542 27.8382 14.9431 27.7915 14.9256C27.7046 14.9002 27.6096 14.8732 27.5243 14.8397C27.4389 14.8063 27.3439 14.7793 27.2474 14.7603C27.2232 14.7556 27.191 14.7493 27.1669 14.7445C27.0607 14.7321 26.9593 14.6954 26.8722 14.6282C26.7786 14.5514 26.7348 14.4341 26.7569 14.3215C26.7882 14.0769 27.0269 13.8397 27.1938 13.7554C27.3688 13.6728 27.5681 13.6367 27.766 13.6504C28.2437 13.6856 28.6613 13.9848 28.7754 14.3832C28.8127 14.4909 28.8051 14.6147 28.7589 14.7226C28.7062 14.8209 28.6084 14.8936 28.5008 14.931C28.3193 15.0041 28.1263 15.008 27.9428 14.9636ZM27.9064 13.7866C27.8581 13.7771 27.8098 13.7676 27.76 13.7662C27.5878 13.7491 27.4062 13.7804 27.2489 13.8581C27.1093 13.931 26.901 14.1408 26.8711 14.3355C26.8553 14.416 26.891 14.4898 26.9475 14.5427C27.0216 14.5907 27.0989 14.6226 27.189 14.6319C27.2212 14.6382 27.2534 14.6445 27.2775 14.6492C27.3725 14.6762 27.4675 14.7032 27.5609 14.7383C27.6543 14.7733 27.7332 14.7971 27.8201 14.8226C28.002 14.875 28.2434 14.9223 28.4602 14.8395C28.5405 14.8135 28.6095 14.7602 28.6575 14.686C28.6909 14.6007 28.6922 14.509 28.6662 14.4287C28.5701 14.109 28.2685 13.8576 27.9064 13.7866Z" fill="#231F20"/>
<path d="M26.3434 16.0036L26.3707 15.9922C26.7466 15.8654 26.9653 15.432 27.0461 15.1053C27.108 14.8751 27.2531 14.5192 27.4664 14.3688C27.7198 14.1846 28.7548 14.8723 28.7548 14.8723C29.431 13.3421 27.1992 12.1103 25.9506 12.8096C25.36 13.1366 24.9748 13.7797 24.8856 14.4474C24.8215 14.9446 24.913 15.7982 25.4845 15.9521C25.6503 16.0013 25.8289 16.028 26.0026 16.037C26.1184 16.043 26.2374 16.0329 26.3434 16.0036Z" fill="#E5F00F"/>
<path d="M25.6471 16.051C25.5908 16.04 25.5345 16.0289 25.4797 16.0098C24.8777 15.8415 24.7619 14.9832 24.8355 14.4378C24.9342 13.7218 25.3436 13.0834 25.9246 12.7629C26.7126 12.3242 27.7976 12.629 28.3995 13.1816C28.9303 13.6702 29.0838 14.2936 28.8142 14.9008C28.8111 14.9169 28.7918 14.9299 28.7741 14.9348C28.7565 14.9396 28.7404 14.9365 28.7259 14.9253C28.3131 14.6438 27.6526 14.3052 27.497 14.4168C27.3206 14.5493 27.1673 14.8618 27.0991 15.1242C27.0563 15.2997 26.8671 15.8809 26.3821 16.0531L26.3548 16.0645C26.2407 16.0923 26.1201 16.1104 26.0059 16.0963C25.8821 16.0887 25.7678 16.0747 25.6471 16.051ZM27.1884 12.71C26.7812 12.6134 26.352 12.6713 25.9796 12.8656C25.4356 13.1683 25.039 13.7841 24.9482 14.4599C24.8872 14.9409 24.9771 15.7608 25.5083 15.9068C25.6741 15.956 25.8447 15.9811 26.0103 15.9886C26.1181 15.993 26.2194 15.9878 26.3254 15.9585L26.3512 15.9552C26.7735 15.8041 26.9453 15.2695 26.9929 15.1117C27.0596 14.8574 27.2223 14.4966 27.4372 14.3382C27.6906 14.1539 28.4739 14.6335 28.7334 14.8014C28.947 14.2667 28.797 13.7109 28.3226 13.2752C27.9951 12.9853 27.6068 12.7921 27.1884 12.71Z" fill="#231F20"/>
<path d="M26.0979 15.6717C26.0738 15.6669 26.0609 15.6477 26.056 15.63C26.0478 15.5866 25.8396 14.518 26.5863 13.7787C26.8587 13.4979 27.2684 13.4111 27.6308 13.5658C28.0592 13.7251 28.4145 14.129 28.4298 14.3493C28.4315 14.383 28.4091 14.4121 28.3753 14.4138C28.3415 14.4155 28.3206 14.3947 28.3108 14.3594C28.3005 14.1986 27.9808 13.8267 27.5846 13.6737C27.2689 13.5366 26.9041 13.6071 26.6622 13.8604C25.9572 14.5577 26.1636 15.5926 26.17 15.6023C26.1718 15.636 26.1574 15.6666 26.1236 15.6684C26.114 15.6748 26.106 15.6733 26.0979 15.6717Z" fill="#CBC959"/>
<path d="M24.1722 22.8061C24.0643 22.7599 20.2306 21.4729 20.2306 21.4729C20.2306 21.4729 18.3411 23.6926 19.6162 24.5194C20.8912 25.3461 25.8072 26.1853 25.8072 26.1853L24.1207 30.2666L25.9554 30.6265C25.9554 30.6265 28.5859 26.5466 28.3145 25.3318C28.0431 24.1171 23.7795 23.1469 23.7795 23.1469L24.1722 22.8061Z" fill="#231F20"/>
<path d="M19.7046 22.0216C19.7046 22.0216 21.6288 18.7307 22.8571 17.3255C23.4177 16.6834 24.2342 16.1417 25.116 16.2896C25.5119 16.3589 25.8308 16.48 26.078 16.7959C26.4124 17.2208 26.6025 17.7428 26.6302 18.283C26.6745 19.4198 24.363 22.7684 24.0081 23.3422L19.7046 22.0216Z" fill="#4A8A63"/>
<path d="M26.985 21.7119C26.985 21.7119 28.5124 22.0618 28.7346 22.1221C28.9567 22.1824 29.3009 22.6426 29.2132 22.8343C29.1254 23.026 28.5807 22.6935 28.4275 22.5799C28.2743 22.4663 26.7512 22.4349 26.7512 22.4349L26.985 21.7119Z" fill="#A87440"/>
<path d="M26.9862 21.7117C26.9862 21.7117 28.5136 22.0615 28.7357 22.1218C28.9579 22.1821 29.3021 22.6424 29.2144 22.8341C29.1856 22.8953 29.1165 22.9068 29.028 22.8894C28.8269 22.85 28.5367 22.6677 28.4271 22.5877C28.39 22.5637 28.3417 22.5542 28.3015 22.5463C27.8992 22.4674 26.7508 22.4426 26.7508 22.4426L26.9862 21.7117ZM26.9037 21.5785L26.8751 21.6815L26.6382 22.4205L26.5921 22.5703L26.7497 22.5761C26.7578 22.5777 27.8819 22.5977 28.2762 22.6751C28.3084 22.6814 28.3326 22.6861 28.3632 22.7005C28.4712 22.7885 28.7839 22.9836 29.0092 23.0278C29.2104 23.0673 29.2872 22.9737 29.324 22.9141C29.3703 22.8062 29.3618 22.6791 29.3067 22.5764C29.2143 22.3661 28.9833 22.0952 28.7853 22.0396C28.5647 21.9712 27.092 21.6405 27.0277 21.6279L26.9037 21.5785Z" fill="#231F20"/>
<path d="M24.1214 30.2666C24.1214 30.2666 23.4413 31.1777 23.7103 31.2973C23.9793 31.417 27.5229 32.5217 27.317 32.0802C27.1112 31.6387 25.956 30.6266 25.956 30.6266L24.1214 30.2666Z" fill="#454B64"/>
<path d="M26.5399 32.1617C25.4858 31.9549 23.7903 31.3966 23.6905 31.3519C23.6438 31.3344 23.6098 31.2943 23.6032 31.2429C23.5315 30.9698 24.0292 30.307 24.0852 30.2344C24.0964 30.2199 24.1237 30.2086 24.1398 30.2117L25.9744 30.5717C25.9825 30.5733 25.9905 30.5748 26.005 30.586C26.055 30.6293 27.1651 31.6158 27.379 32.0589C27.4033 32.1055 27.4018 32.1553 27.3617 32.1892C27.2784 32.2732 26.9583 32.2438 26.5399 32.1617ZM24.1499 30.3307C23.9466 30.6 23.6733 31.0561 23.7093 31.2136C23.7141 31.2312 23.7206 31.2409 23.7367 31.244C24.1056 31.4083 27.0823 32.2932 27.2698 32.1043C27.0737 31.6982 26.0492 30.7869 25.9282 30.6796L24.1499 30.3307Z" fill="#231F20"/>
<path d="M25.437 17.8065L24.631 20.8071L27.385 21.4644L27.2214 22.8946C27.2214 22.8946 23.4144 22.3232 22.7601 21.5263C22.1059 20.7295 23.235 17.7004 23.7483 17.3415C24.2616 16.9826 25.6876 16.8696 25.437 17.8065Z" fill="#4A8A63"/>
<path d="M26.6724 21.3497L24.6202 20.8635C24.6041 20.8604 24.5896 20.8491 24.5831 20.8395C24.5767 20.8299 24.5718 20.8122 24.5749 20.7961L25.4025 17.5575C25.4089 17.5253 25.4377 17.5059 25.4699 17.5122C25.5021 17.5185 25.5215 17.5474 25.5152 17.5796L25.5136 17.5876L24.6971 20.77L26.6929 21.2451C26.7251 21.2514 26.7445 21.2803 26.7382 21.3125C26.7319 21.3447 26.703 21.3641 26.6724 21.3497Z" fill="#231F20"/>
<path d="M25.0336 22.5488C24.0278 22.3515 22.8961 22.0291 22.7062 21.549C22.3929 20.7605 22.8149 18.7375 22.9729 17.9747C22.9871 17.9023 22.9982 17.8459 23.0077 17.7977C23.014 17.7655 23.0429 17.7461 23.075 17.7524C23.1072 17.7587 23.1266 17.7876 23.1203 17.8198C23.1124 17.86 23.0998 17.9244 23.0856 17.9968C22.9433 18.6792 22.5119 20.7504 22.8073 21.502C22.9356 21.828 23.6523 22.1357 24.8562 22.3886C25.788 22.5798 26.6809 22.6714 26.6889 22.673C26.7211 22.6793 26.7421 22.7001 26.7438 22.7339C26.7375 22.7661 26.7167 22.7871 26.6829 22.7888C26.6169 22.7842 25.8705 22.713 25.0336 22.5488Z" fill="#231F20"/>
<path d="M26.9272 17.1128C26.9272 17.1128 25.1725 15.749 24.945 15.9718C24.7768 16.1477 24.6134 16.3413 24.4743 16.5396C24.4743 16.5396 26.245 17.9065 26.619 17.7041C26.834 17.5875 26.9554 17.3523 26.9272 17.1128Z" fill="#4A8A63"/>
<path d="M19.7643 16.5985L13.0195 15.2751L12.7305 16.7484L19.4753 18.0717L19.7643 16.5985Z" fill="black"/>
<path d="M19.9268 18.1768L12.2773 16.676L11.1199 22.5754L18.7694 24.0762L19.9268 18.1768Z" fill="black"/>
<path opacity="0.3" d="M14.5697 21.9453L13.7012 21.7749L13.4541 23.0342L14.3227 23.2046L14.5697 21.9453Z" fill="white"/>
<path opacity="0.3" d="M19.9304 18.161L18.0137 17.7849L16.8499 23.7167L18.7666 24.0928L19.9304 18.161Z" fill="black"/>
<path opacity="0.3" d="M19.765 16.5985L17.877 16.228L17.5899 17.6911L19.478 18.0615L19.765 16.5985Z" fill="black"/>
<path d="M15.9491 15.85L15 15.6638L14.9124 16.1101L15.8616 16.2964L15.9491 15.85Z" fill="white"/>
<path d="M16.3235 15.9535C16.3237 15.9462 16.3251 15.939 16.3277 15.9322L16.3476 15.8698C16.3648 15.8164 16.3928 15.7373 16.4356 15.637C16.5534 15.3529 16.7221 15.0927 16.9334 14.8692C17.0052 14.7959 17.0827 14.7285 17.1653 14.6676C17.251 14.5959 17.3479 14.5389 17.4522 14.4989C17.5111 14.4776 17.5751 14.4753 17.6352 14.4924C17.6664 14.5043 17.6941 14.5237 17.7159 14.549C17.7376 14.5742 17.7527 14.6045 17.7598 14.6371C17.7766 14.7647 17.7542 14.8945 17.6954 15.0091C17.5763 15.2546 17.3893 15.4609 17.1567 15.6035C16.9093 15.7514 16.6458 15.8707 16.3714 15.9591L16.3332 15.9727L16.3177 15.9783L16.3065 15.9665C16.1096 15.7592 15.9281 15.5378 15.7633 15.3041C15.6089 15.0851 15.4941 14.8406 15.4243 14.5818C15.4057 14.5202 15.3952 14.4564 15.3932 14.392C15.3902 14.3273 15.4085 14.2633 15.4453 14.2099C15.4637 14.1825 15.4885 14.1599 15.5175 14.1441C15.5466 14.1284 15.579 14.12 15.6121 14.1195C15.6748 14.1253 15.7331 14.1538 15.7761 14.1998C15.8154 14.2409 15.8497 14.2863 15.8784 14.3353C15.9078 14.3814 15.9343 14.428 15.96 14.4734C16.0086 14.5613 16.0525 14.6518 16.0914 14.7444C16.2113 15.0233 16.2872 15.3192 16.3165 15.6213C16.3238 15.7031 16.3266 15.7852 16.325 15.8673L16.3221 15.9311C16.3211 15.9383 16.3197 15.9454 16.3179 15.9524C16.3179 15.9524 16.3192 15.9459 16.3155 15.9308L16.3136 15.8669C16.3121 15.8109 16.3081 15.7283 16.296 15.6231C16.2605 15.3255 16.1818 15.0347 16.0624 14.7599C16.023 14.6688 15.9789 14.5799 15.9301 14.4935C15.9044 14.4481 15.8777 14.4025 15.848 14.3582C15.8205 14.3118 15.7876 14.2689 15.75 14.2303C15.7144 14.192 15.6661 14.1682 15.6141 14.1632C15.5883 14.1634 15.5629 14.17 15.5402 14.1823C15.5175 14.1946 15.4981 14.2123 15.4839 14.2338C15.417 14.3246 15.4404 14.4551 15.4705 14.5716C15.5396 14.8276 15.6529 15.0694 15.8053 15.2864C15.9684 15.5177 16.1482 15.7368 16.3431 15.942L16.3162 15.9367L16.3545 15.923C16.6254 15.8357 16.8856 15.718 17.1301 15.5723C17.3555 15.4361 17.5372 15.2381 17.6536 15.0019C17.7105 14.8962 17.7341 14.7758 17.7213 14.6565C17.7158 14.6304 17.7038 14.6061 17.6865 14.5859C17.6691 14.5657 17.6469 14.5502 17.6219 14.5408C17.5706 14.5262 17.516 14.5283 17.4659 14.5467C17.3655 14.585 17.2718 14.639 17.1884 14.7067C17.1065 14.7661 17.0294 14.8317 16.9576 14.9028C16.7465 15.121 16.5754 15.3745 16.4519 15.6518C16.4077 15.7498 16.3767 15.8293 16.3562 15.8801L16.3329 15.94L16.3235 15.9535Z" fill="#263238"/>
<path d="M19.4383 20.7897C19.4357 20.8027 17.7186 20.4773 15.6046 20.0626C13.4906 19.6478 11.7779 19.3002 11.7804 19.2873C11.783 19.2743 13.4991 19.5995 15.6141 20.0144C17.729 20.4294 19.441 20.7758 19.4383 20.7897Z" fill="#263238"/>
<path d="M18.7654 22.6822L17.7969 22.4922L17.6068 23.4608L18.5754 23.6508L18.7654 22.6822Z" fill="#F5F5F5"/>
<path opacity="0.3" d="M15.474 17.3032L14.6055 17.1328L14.3584 18.3921L15.227 18.5626L15.474 17.3032Z" fill="white"/>
<path d="M17.5757 17.6792C17.5983 17.438 17.6369 17.1985 17.6913 16.9624C17.7301 16.7232 17.7848 16.4869 17.8551 16.255C17.8331 16.4964 17.7944 16.7359 17.7395 16.9718C17.7012 17.2111 17.6464 17.4475 17.5757 17.6792Z" fill="#263238"/>
<path d="M16.8612 23.6595C16.8529 23.6578 17.1035 22.3415 17.4218 20.7192C17.7401 19.0969 18.0055 17.7834 18.0138 17.7851C18.0221 17.7867 17.7706 19.1029 17.4523 20.7252C17.134 22.3475 16.8696 23.6611 16.8612 23.6595Z" fill="#263238"/>
<path d="M19.9008 18.1718C19.8981 18.1857 18.1923 17.8616 16.0912 17.4494C13.9902 17.0372 12.2875 16.6925 12.2902 16.6786C12.2929 16.6647 13.9987 16.9888 16.1007 17.4012C18.2027 17.8136 19.9034 18.1588 19.9008 18.1718Z" fill="#263238"/>
</svg>
