<svg width="24" height="24" viewBox="0 0 24 24" fill="red" xmlns="http://www.w3.org/2000/svg">
<g id="emojione-monotone:motorcycle" clip-path="url(#clip0_1067_8725)">
<path id="Vector" d="M5.21062 14.7563H4.26562C3.60787 14.8425 4.8975 15.4913 4.8975 15.4913C4.8975 15.4913 5.52937 15.0267 5.52937 14.886C5.529 14.7454 5.21062 14.7563 5.21062 14.7563ZM10.0372 19.1847C9.8625 19.2856 9.6885 19.5128 9.651 19.6894L9.57975 20.0247C9.54225 20.2017 9.58312 20.4102 9.67012 20.4882C9.75712 20.5666 9.8745 20.4882 9.93037 20.3153L10.2529 19.3174C10.3095 19.1434 10.212 19.0834 10.0372 19.1847ZM14.5811 18.8037C14.4067 18.9053 14.2324 19.1318 14.1952 19.3092L14.1236 19.6437C14.0861 19.8207 14.1274 20.0292 14.2144 20.1079C14.3014 20.1859 14.4187 20.1083 14.475 19.9343L14.7971 18.9372C14.8526 18.7624 14.7555 18.7028 14.5811 18.8037Z" fill="#7C7C7A"/>
<path id="Vector_2" d="M19.7344 16.3342C19.2328 16.3332 18.7368 16.4391 18.2793 16.6448C17.8219 16.8506 17.4136 17.1515 17.0816 17.5275L16.8394 17.4202C16.917 17.3494 17.0006 17.2759 17.0978 17.199C17.2515 17.0782 17.31 16.941 17.313 16.8049L21.9728 14.5988C21.9853 14.3057 21.9064 14.0159 21.747 13.7696C22.3954 12.9551 22.4062 11.9839 22.4062 11.9306V11.3775H21.8438C21.0075 11.3775 20.3524 11.3955 19.5394 11.6299C18.9836 11.7904 18.588 11.9629 18.2951 12.1496C18.378 11.7694 18.3259 11.3284 18.0007 10.8589C18.0007 10.8589 15.8599 8.62538 13.3984 7.93425C14.1353 7.3485 14.3783 6.70162 14.3783 5.35238C14.3782 2.81437 12.2794 0.75 9.69938 0.75C7.11975 0.75 5.02087 2.81437 5.02087 5.352C5.02087 5.53575 5.03288 5.69887 5.0535 5.84775L5.04712 5.85C4.59787 6.0105 5.43337 8.31525 5.91263 8.3385C6.59963 9.9495 7.62263 10.3148 8.40563 10.3148C8.8065 10.3148 9.2325 10.209 9.65025 10.0177L9.7785 11.5331L9.01612 11.9374L8.98088 11.9059L8.451 11.4304L8.28975 11.2852H8.07187C6.36975 11.2852 4.77413 12.1058 3.80325 13.4794L3.72638 13.5874C3.26963 14.2275 2.97638 14.6805 3.0585 15.1249C3.09488 15.3203 3.20513 15.4886 3.36975 15.5985C3.52012 15.6997 3.7335 15.8407 3.9765 16.0012C3.18449 16.0571 2.42865 16.3545 1.81087 16.8533L2.33063 16.9065C1.3785 17.5245 0.75 18.5861 0.75 19.7921C0.75 21.7024 2.32387 23.25 4.26562 23.25C5.79525 23.25 7.09275 22.2881 7.5765 20.9464L7.57725 20.9797C7.57595 21.1152 7.60162 21.2495 7.65277 21.3749C7.70391 21.5003 7.77951 21.6142 7.87514 21.7101C7.97078 21.806 8.08455 21.8819 8.20981 21.9333C8.33507 21.9848 8.46933 22.0108 8.60475 22.0099C8.63737 22.0099 8.67075 22.0087 8.70487 22.0054L8.71912 22.0046L8.73337 22.0024L15.6206 21.063L16.1561 20.9902L16.1033 20.4615C16.098 20.4109 16.0972 20.3603 16.0958 20.3092C16.0943 20.2251 16.0897 20.141 16.0819 20.0573C16.0587 19.8162 16.051 19.574 16.059 19.332L16.2413 19.4074C16.2266 19.535 16.219 19.6633 16.2184 19.7917C16.2184 21.702 17.7922 23.2496 19.734 23.2496C21.6758 23.2496 23.25 21.7024 23.25 19.7921C23.25 17.8819 21.6761 16.3342 19.7344 16.3342ZM16.8259 14.5387C18.5479 13.6811 17.2733 12.8599 19.6976 12.1605C20.4424 11.946 21.0401 11.9306 21.8438 11.9306C21.8438 11.9306 21.8438 13.3354 20.6381 13.9838C18.1868 15.3022 16.2188 15.4215 16.2188 15.4215C16.2188 15.4215 16.1966 14.8519 16.8259 14.5387ZM14.3254 16.6357C14.5453 16.8225 14.7009 17.0737 14.7701 17.3539C14.3044 17.4307 14.0745 17.7443 13.9301 17.9419C13.9256 17.9486 13.9226 17.9513 13.9185 17.9573L14.3254 16.6357ZM9.51825 9.26213C9.13875 9.46762 8.75437 9.57675 8.40525 9.57675C7.51425 9.57675 6.95962 8.86425 6.61762 8.082C8.00925 7.49587 9.71287 6.54075 10.3871 5.83988C10.4541 5.86006 10.5235 5.87079 10.5934 5.87175C11.0066 5.87175 11.3411 5.54212 11.3411 5.13637C11.3411 4.73025 11.0063 4.401 10.5934 4.401C10.2454 4.401 9.95588 4.63538 9.87225 4.95225C8.86837 4.902 7.13137 5.21925 5.78212 5.61375C5.77439 5.52684 5.77051 5.43963 5.7705 5.35238C5.7705 3.22162 7.533 1.488 9.699 1.488C11.8654 1.488 13.6279 3.22162 13.6279 5.35238C13.6279 7.10812 13.329 7.26375 11.0033 8.47613C10.506 8.73378 10.0109 8.99579 9.51825 9.26213ZM9.13987 13.926C9.17362 13.8428 9.19088 13.7618 9.19725 13.6796L11.4735 12.6559C11.5952 12.5913 11.6921 12.4884 11.7493 12.3631C11.8065 12.2378 11.8206 12.0971 11.7896 11.9629H11.7934L11.739 11.325L13.2904 12.6806C13.242 12.6739 13.1944 12.6637 13.1453 12.6637C13.0508 12.6637 12.9585 12.6761 12.8715 12.7013C12.4913 12.8096 11.9423 13.0215 11.4109 13.2262C11.1169 13.3399 10.839 13.4467 10.6331 13.5191C10.1835 13.6759 9.89175 14.0355 9.89175 14.4341V14.5046C9.5487 14.4268 9.20413 14.3557 8.85825 14.2916C8.98687 14.1908 9.07837 14.076 9.13987 13.926ZM12.7477 13.3211L12.3577 14.8519L11.694 15.0079C11.2855 14.8697 10.8718 14.7473 10.4539 14.6407V14.4338C10.4539 14.259 10.6267 14.1075 10.8217 14.0392C11.3126 13.8675 12.1582 13.5202 12.7477 13.3211ZM7.37887 12.345L7.6575 12.2284C7.71075 12.2055 7.7655 12.1954 7.81988 12.1954C7.97475 12.1954 8.121 12.2816 8.1855 12.4275L8.42587 12.9799C8.78325 13.7985 8.78325 13.7985 7.68525 14.2582C7.53487 14.3216 7.404 14.3471 7.29037 14.3471C6.84263 14.3471 6.6675 13.9459 6.63 13.8593C6.34088 13.1993 6.77062 12.867 7.13062 12.6863C7.13962 12.5426 7.23112 12.4065 7.37887 12.345ZM6.02362 19.7921C6.02362 19.8716 6.0105 19.9474 6 20.0243L6.71737 19.977C6.69443 20.276 6.6149 20.5679 6.483 20.8372L5.89125 20.4476C5.82935 20.5908 5.74823 20.7249 5.65013 20.8463L6.29625 21.159C6.12308 21.4069 5.9057 21.6207 5.655 21.7897L5.33737 21.1541C5.21884 21.2477 5.08862 21.3255 4.95 21.3855L5.35162 21.9619C5.07026 22.0983 4.76568 22.1803 4.45388 22.2038L4.50187 21.498C4.42388 21.5085 4.34663 21.5212 4.266 21.5212C4.19138 21.5212 4.1205 21.5089 4.04813 21.4999L4.10325 22.2049C3.79122 22.185 3.48574 22.1063 3.20288 21.9731L3.59925 21.3908C3.45407 21.3305 3.31771 21.2509 3.19388 21.1541L2.87625 21.7897C2.62564 21.6206 2.40827 21.4068 2.235 21.159L2.88112 20.8466C2.78309 20.7253 2.70198 20.5912 2.64 20.448L2.04825 20.8376C1.91635 20.5683 1.83682 20.2764 1.81387 19.9774L2.53125 20.0246C2.52075 19.9478 2.50762 19.872 2.50762 19.7925C2.50762 19.7186 2.52075 19.6489 2.52975 19.578L1.81275 19.6324C1.83295 19.325 1.91294 19.0245 2.04825 18.7477L2.64 19.1374C2.69813 18.9983 2.77763 18.8711 2.86875 18.753L2.22 18.4462C2.39536 18.1895 2.61794 17.9685 2.87587 17.7949L3.19388 18.4305C3.31759 18.3333 3.45397 18.2535 3.59925 18.1931L3.20288 17.6108C3.47781 17.4807 3.77442 17.4027 4.07775 17.3805L4.02975 18.0863C4.10775 18.0761 4.185 18.0626 4.26562 18.0626C4.34625 18.0626 4.4235 18.0758 4.5015 18.0863L4.45388 17.3805C4.69259 17.3986 4.92742 17.4513 5.151 17.5369L4.52887 18.7909C4.44312 18.7677 4.35481 18.7554 4.266 18.7541C3.68325 18.7541 3.21112 19.2184 3.21112 19.7921C3.21112 20.3659 3.68325 20.8294 4.266 20.8294C4.84838 20.8294 5.32088 20.3659 5.32088 19.7921C5.32088 19.4921 5.19 19.2244 4.98375 19.035L5.78813 17.9036C5.98088 18.054 6.15712 18.2242 6.297 18.4252L5.65088 18.738C5.7435 18.8554 5.82638 18.9799 5.886 19.1186L6.47213 18.7234C6.6075 18.9937 6.69337 19.2911 6.71775 19.6065L6.00037 19.5596C6.01012 19.6365 6.02362 19.7122 6.02362 19.7921ZM15.5224 20.1161C15.537 20.25 15.5303 20.3843 15.5438 20.5151L8.65575 21.4549C8.63879 21.4564 8.62177 21.4571 8.60475 21.4571C8.30475 21.4571 8.13975 21.2197 8.13975 20.9715C8.13975 20.9715 8.103 18.6023 7.78125 18.0199C7.61662 17.7218 6.74137 17.1491 6.72787 17.1401C6.72787 17.1401 4.44225 15.648 3.68663 15.141C3.40725 14.9539 3.9375 14.2582 4.26525 13.7951C4.90601 12.8912 5.84959 12.247 6.92475 11.9794C6.8085 12.0724 6.71362 12.1868 6.65287 12.3199C6.2265 12.5933 6.04912 12.9169 5.99437 13.2206C5.88525 13.3189 5.77688 13.425 5.67188 13.5458C5.52488 13.7138 5.03475 14.4319 5.67188 14.4319C5.79637 14.4319 6.04163 14.4484 6.36975 14.4818C6.4835 14.6143 6.6248 14.7205 6.78381 14.7929C6.94281 14.8652 7.11569 14.902 7.29037 14.9006C7.488 14.9006 7.69537 14.8552 7.9065 14.7667L8.04263 14.7098C9.2475 14.9066 10.6785 15.213 11.8241 15.642C11.9355 15.6836 12.0356 15.7241 12.1264 15.7635L11.5429 18.0559L11.2785 17.9906C11.098 17.9459 10.9102 17.9387 10.7269 17.9696C10.7606 17.9291 10.7393 17.868 10.6432 17.7967L8.2365 16.0166C8.07113 15.8944 7.93537 15.9308 7.93537 16.098C7.93537 16.2653 8.07 16.5022 8.23425 16.626L9.78825 17.7941C9.95288 17.9179 10.2566 18.0191 10.4633 18.0191H10.5218C10.1167 18.153 9.79125 18.4748 9.68475 18.906L12.7459 19.6624C13.101 19.7498 13.4576 19.5454 13.542 19.2034L13.6571 18.7429C14.4694 18.6442 14.3171 17.8894 14.9888 17.8894C15.2479 17.8894 15.4759 17.928 15.675 17.9809C15.5149 18.5134 15.4504 19.4393 15.5224 20.1161ZM15.2782 16.7299L15.0338 16.6222L16.4025 15.9592C16.7788 15.9161 17.1523 15.8505 17.5208 15.7628L16.9575 16.1141C16.8829 16.0358 16.8255 15.9881 16.8255 15.9881L15.2782 16.7299ZM18.345 17.7949L18.531 18.1676L18.1151 17.9839C18.1897 17.9186 18.2621 17.8507 18.345 17.7949ZM21.4924 19.7921C21.4924 19.8716 21.4792 19.9474 21.4688 20.0243L22.1857 19.977C22.1628 20.276 22.0833 20.5679 21.9514 20.8372L21.3596 20.4476C21.2979 20.5909 21.2167 20.725 21.1185 20.8463L21.7646 21.1586C21.5918 21.4067 21.3745 21.6205 21.1238 21.7894L20.8057 21.1541C20.6865 21.2449 20.5597 21.3266 20.4191 21.3851L20.8204 21.9615C20.5389 22.098 20.2342 22.18 19.9222 22.2034L19.9699 21.4976C19.8923 21.5081 19.8146 21.5209 19.734 21.5209C19.6594 21.5209 19.5881 21.5085 19.5165 21.4995L19.5712 22.2045C19.2593 22.1846 18.954 22.106 18.6712 21.9728L19.0676 21.3904C18.9223 21.3302 18.7858 21.2506 18.6619 21.1537L18.3446 21.7894C18.0939 21.6205 17.8766 21.4067 17.7038 21.1586L18.3499 20.8459C18.2517 20.7246 18.1706 20.5905 18.1087 20.4473L17.517 20.8369C17.3849 20.5676 17.3054 20.2757 17.2826 19.9766L17.679 20.0025L19.0376 20.565C19.23 20.7345 19.4776 20.8283 19.734 20.8286C20.3164 20.8286 20.7889 20.3651 20.7889 19.7914C20.7889 19.272 20.4007 18.846 19.8945 18.7695L18.8449 18.3056C18.9157 18.2629 18.99 18.2239 19.0676 18.1924L18.6712 17.61C18.9461 17.4801 19.2426 17.4021 19.5457 17.3797L19.4981 18.0855C19.5758 18.0754 19.6534 18.0619 19.734 18.0619C19.8146 18.0619 19.8923 18.075 19.9699 18.0855L19.9222 17.3797C20.2254 17.4022 20.5218 17.4803 20.7967 17.61L20.4004 18.1924C20.5417 18.2494 20.6707 18.3277 20.7915 18.4177L21.102 17.7795C21.362 17.9506 21.587 18.1696 21.765 18.4249L21.1189 18.7372C21.2111 18.8546 21.294 18.9795 21.354 19.1182L21.9401 18.723C22.0755 18.9934 22.1614 19.2908 22.1854 19.6061L21.4688 19.56C21.4789 19.6365 21.4924 19.7122 21.4924 19.7921Z" fill="#7C7C7A"/>
</g>
<defs>
<clipPath id="clip0_1067_8725">
<rect width="24" height="24" fill="white"/>
</clipPath>
</defs>
</svg>
